<ttFont>
<head>
        <!-- Most of this table will be recalculated by the compiler -->
        <tableVersion value="1.0"/>
        <fontRevision value="1.002"/>
        <checkSumAdjustment value="0xc1d603de"/>
        <magicNumber value="0x5f0f3cf5"/>
        <flags value="00000000 00000011"/>
        <unitsPerEm value="1000"/>
        <created value="Thu Jan 14 16:25:56 2016"/>
        <modified value="Thu Jan 14 21:25:57 2016"/>
        <xMin value="-10"/>
        <yMin value="-294"/>
        <xMax value="2120"/>
        <yMax value="1150"/>
        <macStyle value="00000000 00000000"/>
        <lowestRecPPEM value="3"/>
        <fontDirectionHint value="2"/>
        <indexToLocFormat value="0"/>
        <glyphDataFormat value="0"/>
    </head>
                    <CharString index="0">
                        rmoveto
            11 93 -98 callsubr
            -162 85 -93 322 3 hvcurveto
            -184 432 -88 callgsubr
          
                    </CharString>
                    <CharString index="1">
                        -45 callgsubr
            -77 callsubr
            -198 80 -110 141 hvcurveto
            10 557 rmoveto
            78 42 -80 -159 -150 -36 -73 -76 -78 -42 80 159 150 36 73 76 hvcurveto
            endchar
          
                    </CharString>
                    <CharString index="2">
                        216 4 79 56 67 vvcurveto
            46 -45 39 -119 19 vhcurveto
            154 106 -7 69 rlineto
            -277 -75 hlineto
            180 2 rlineto
            -3 vlineto
            -148 -102 rlineto
            -44 vlineto
            125 -12 52 -21 -25 vvcurveto
            -27 -52 -17 -164 -4 vhcurveto
            return
          
                    </CharString>
                    <CharString index="3">
                        -106 callgsubr
            endchar
          
                    </CharString>
                    <CharString index="4">
                        -80 callgsubr
            -88 callsubr
            return
          
                    </CharString>
                    <CharString index="5">
                        -105 callsubr
            endchar
          
                    </CharString>
                    <CharString index="6">
                        102 5 rlineto
            -101 callgsubr
            return
          
                    </CharString>
                    <CharString index="7">
                        rmoveto
            -62 callsubr
            -84 callgsubr
          
                    </CharString>
                    <CharString index="8">
                        rmoveto
            182 153 -53 52 -124 -101 -127 102 -69 -66 184 -39 callsubr
            return
          
                    </CharString>
                    <CharString index="9">
                        -220 5 -75 33 -12 100 rlinecurve
            321 9 rlineto
            173 18 -67 110 -140 hhcurveto
            -131 -112 -118 -153 return
          
                    </CharString>
                    <CharString index="10">
                        rmoveto
            hintmask 00111110
            -77 callgsubr
            hintmask 01011110
            -94 callsubr
            hintmask 10011110
            -16 callsubr
            hintmask 00111110
            -93 callgsubr
          
                    </CharString>
                    <CharString index="11">
                        -4 -132 -4 -102 -5 -134 rrcurveto
            -3 hlineto
            -13 44 -48 139 -12 36 rrcurveto
            -64 hlineto
            -11 -35 -46 -138 -13 -44 rrcurveto
            -4 hlineto
            -6 134 -5 101 -4 131 rrcurveto
            -107 hlineto
            9 -189 21 -201 18 -108 rrcurveto
            97 hlineto
            78 247 rlineto
            endchar
          
                    </CharString>
                    <CharString index="12">
                        rmoveto
            -54 40 -101 85 -56 55 -75 -90 rcurveline
            69 -48 115 -60 71 -30 rrcurveto
            return
          
                    </CharString>
                    <CharString index="13">
                        -62 -207 -54 -208 -53 -206 rrcurveto
            114 hlineto
            14 57 13 58 14 57 rrcurveto
            184 hlineto
            return
          
                    </CharString>
                    <CharString index="14">
                        rmoveto
            -51 -33 26 44 -35 callsubr
            -41 0 -33 2 -29 rrcurveto
            -24 -35 -41 -15 -38 hhcurveto
            return
          
                    </CharString>
                    <CharString index="15">
                        rmoveto
            -40 callgsubr
            hintmask 11011000
            -28 callsubr
            hintmask 11100100
            -16 callgsubr
            hintmask 11011000
            -89 callsubr
            hintmask 11100100
            -91 callsubr
          
                    </CharString>
                    <CharString index="16">
                        65 -246 rmoveto
            -49 -25 24 29 27 21 21 35 15 hvcurveto
            48 -23 43 -20 -28 vvcurveto
            -24 -28 -21 -45 vhcurveto
            endchar
          
                    </CharString>
                    <CharString index="17">
                        75 callsubr
            -84 callsubr
            endchar
          
                    </CharString>
                    <CharString index="18">
                        -58 310 rmoveto
            21 24 20 42 46 24 -22 -28 -25 -21 -21 -32 -16 vhcurveto
            -45 22 -38 20 29 vvcurveto
            return
          
                    </CharString>
                    <CharString index="19">
                        -110 hmoveto
            3 -40 callsubr
            -114 -66 callsubr
            return
          
                    </CharString>
                    <CharString index="20">
                        -73 callsubr
            13 callgsubr
            -30 callgsubr
            return
          
                    </CharString>
                    <CharString index="21">
                        rmoveto
            52 -33 56 51 64 76 38 57 rlinecurve
            -106 50 -23 -58 -44 -87 -37 -56 rlinecurve
            210 -2 rmoveto
            53 -32 57 51 63 75 39 58 rlinecurve
            -111 44 -23 -61 -40 -78 -38 -57 rlinecurve
            return
          
                    </CharString>
                    <CharString index="22">
                        -36 callsubr
            -31 callgsubr
            -51 callgsubr
          
                    </CharString>
                    <CharString index="23">
                        -51 callsubr
            -10 callsubr
            rlinecurve
            198 1 0 callgsubr
            return
          
                    </CharString>
                    <CharString index="24">
                        369 -421 -104 callsubr
          
                    </CharString>
                    <CharString index="25">
                        -278 174 233 84 -233 170 272 96 -387 -620 return
          
                    </CharString>
                    <CharString index="26">
                        89 75 57 83 116 -140 31 -98 -73 hvcurveto
            -64 callsubr
            return
          
                    </CharString>
                    <CharString index="27">
                        -39 callgsubr
            55 -50 87 69 50 32 35 40 vhcurveto
            endchar
          
                    </CharString>
                    <CharString index="28">
                        44 112 61 109 73 107 rrcurveto
            74 -307 vlineto
            -7 -76 rlineto
            222 hlineto
            2 -5 -75 -103 -59 -102 -45 -107 rlinecurve
            return
          
                    </CharString>
                    <CharString index="29">
                        -68 callgsubr
            -173 -84 vlineto
            endchar
          
                    </CharString>
                    <CharString index="30">
                        198 -1 -79 110 -141 -42 callgsubr
            return
          
                    </CharString>
                    <CharString index="31">
                        rmoveto
            hintmask 00101011
            103 -70 callgsubr
            hintmask 10000111
            -85 callgsubr
            hintmask 10010011
            -80 callsubr
          
                    </CharString>
                    <CharString index="32">
                        -105 callsubr
            -70 -223 -49 callsubr
            return
          
                    </CharString>
                    <CharString index="33">
                        rmoveto
            hintmask 00110111
            -36 callgsubr
            hintmask 01011011
            -58 callgsubr
            endchar
          
                    </CharString>
                    <CharString index="34">
                        rmoveto
            68 65 -184 -40 callsubr
            -7 hlineto
            return
          
                    </CharString>
                    <CharString index="35">
                        8 70 rmoveto
            -49 -37 32 70 hvcurveto
            83 42 76 -18 -62 vvcurveto
            -41 -31 -23 -42 vhcurveto
            endchar
          
                    </CharString>
                    <CharString index="36">
                        -38 -47 87 -64 hhcurveto
            -54 -50 -59 -82 -35 hvcurveto
            57 -27 rlineto
            53 27 23 25 19 hhcurveto
            return
          
                    </CharString>
                    <CharString index="37">
                        48 callgsubr
            -78 callsubr
          
                    </CharString>
                    <CharString index="38">
                        -12 93 142.5 -27 callsubr
            return
          
                    </CharString>
                    <CharString index="39">
                        -64 callgsubr
            hintmask 10011110
            135 -894 -97 callsubr
          
                    </CharString>
                    <CharString index="40">
                        -224 -13 -70 52 128 vvcurveto
            96 38 57 249 -8 vhcurveto
            -7 105 rlineto
            -298 -1 -92 -124 -139 vvcurveto
            return
          
                    </CharString>
                    <CharString index="41">
                        hlineto
            -2 -39 callsubr
            return
          
                    </CharString>
                    <CharString index="42">
                        -266 -100 callsubr
          
                    </CharString>
                    <CharString index="43">
                        13 60 48 35 126 40 -29 72 rcurveline
            -166 -53 -80 -91 -113 vvcurveto
            return
          
                    </CharString>
                    <CharString index="44">
                        -94 -12 -71 -41 -45 -52 -2 25 -6 56 -1 5 rrcurveto
            -206 hlineto
            -9 -79 118 -8 2 -88 1 -104 2 -135 rlinecurve
            -121 -84 hlineto
            return
          
                    </CharString>
                    <CharString index="45">
                        57 -18 57 58 27 86 -4 75 rlinecurve
            return
          
                    </CharString>
                    <CharString index="46">
                        rmoveto
            5 -40 callsubr
            -116 hlineto
            -4 -39 callsubr
            return
          
                    </CharString>
                    <CharString index="47">
                        11 92 rlineto
            -67 callsubr
            endchar
          
                    </CharString>
                    <CharString index="48">
                        -13 95 -63 -21 26 -27 callgsubr
            return
          
                    </CharString>
                    <CharString index="49">
                        rmoveto
            -56 callgsubr
            287 -13 92 77 86 vvcurveto
            return
          
                    </CharString>
                    <CharString index="50">
                        148 -289 41 93 vvcurveto
            45 50 27 201 -14 vhcurveto
            -6 103 rlineto
            -258 14 -106 -98 -93 return
          
                    </CharString>
                    <CharString index="51">
                        rmoveto
            54 49 58 83 36 hvcurveto
            -58 27 rlineto
            -54 -27 -23 -25 -19 hhcurveto
            return
          
                    </CharString>
                    <CharString index="52">
                        405 -115 -425 vlineto
            -80 -29 -32 -63 return
          
                    </CharString>
                    <CharString index="53">
                        683 -87 callsubr
            return
          
                    </CharString>
                    <CharString index="54">
                        608 -107 callgsubr
            return
          
                    </CharString>
                    <CharString index="55">
                        695 -103 callsubr
            return
          
                    </CharString>
                    <CharString index="56">
                        -125 1 2 16 57 207 7 26 rlinecurve
            -95 6 return
          
                    </CharString>
                    <CharString index="57">
                        8 100 -305 -2 297 425 rlineto
            97 -413 vlineto
            -8 -100 296 2 -298 -425 rlineto
            -97 vlineto
            endchar
          
                    </CharString>
                    <CharString index="58">
                        rmoveto
            430 72 -430 hlineto
            return
          
                    </CharString>
                    <CharString index="59">
                        62 callgsubr
            -95 callgsubr
            return
          
                    </CharString>
                    <CharString index="60">
                        rmoveto
            49 -15 57 84 24 79 -5 92 rlinecurve
            -119 -1 15 -78 3 -76 -24 -85 rlinecurve
            return
          
                    </CharString>
                    <CharString index="61">
                        6 72 -54 -1 2 128 -83 -7 2 -121 return
          
                    </CharString>
                    <CharString index="62">
                        rmoveto
            133 110 109 166 return
          
                    </CharString>
                    <CharString index="63">
                        rmoveto
            5 hlineto
            hintmask 11111000
            -275 -82 vlineto
            hintmask 10111000
            26 92 26 92 25 91 rrcurveto
            5 -524 rmoveto
            255 hlineto
            8 96 rlineto
            -168 174 133 84 -133 170 162 96 -330 hlineto
            -62 -205 -68 -209 -57 -206 rrcurveto
            108 hlineto
            hintmask 11111000
            15 55 15 55 16 55 rrcurveto
            106 hlineto
            endchar
          
                    </CharString>
                    <CharString index="64">
                        12 callsubr
            rrcurveto
            hintmask 11010000
            -54 callgsubr
            hintmask 10110000
            -75 callgsubr
          
                    </CharString>
                    <CharString index="65">
                        -19 callsubr
            121 -56 51 -87 return
          
                    </CharString>
                    <CharString index="66">
                        143 89 -401 -89 143 -442 return
          
                    </CharString>
                    <CharString index="67">
                        140 rlineto
            return
          
                    </CharString>
                    <CharString index="68">
                        -140 rlineto
            return
          
                    </CharString>
                    <CharString index="69">
                        -25 callgsubr
            -369 -286 -49 callsubr
            return
          
                    </CharString>
                    <CharString index="70">
                        22 91 23 90 23 90 rrcurveto
            endchar
          
                    </CharString>
                    <CharString index="71">
                        rmoveto
            167 53 80 91 114 vvcurveto
            107 -67 56 -96 -89 -75 -56 -83 return
          
                    </CharString>
                    <CharString index="72">
                        55 41 33 154 -16 hvcurveto
            1 return
          
                    </CharString>
                    <CharString index="73">
                        -59 callgsubr
            hintmask 10111100
            -35 callgsubr
            hintmask 11011100
            -21 callsubr
            endchar
          
                    </CharString>
                    <CharString index="74">
                        -98 callgsubr
            endchar
          
                    </CharString>
                    <CharString index="75">
                        -137 309 -122 -4 198 -414 rlineto
            -204 vlineto
            endchar
          
                    </CharString>
                    <CharString index="76">
                        148.5 10 callsubr
            return
          
                    </CharString>
                    <CharString index="77">
                        3 -24 5 -32 1 -4 rrcurveto
            endchar
          
                    </CharString>
                    <CharString index="78">
                        rmoveto
            37 89 rlineto
            -160 48 -75 36 50 vvcurveto
            hintmask 10001000
            53 86 41 63 vvcurveto
            39 -31 40 -82 22 vhcurveto
            hintmask 10000100
            82 25 31 42 37 vvcurveto
            hintmask 10100000
            56 -92 49 45 vvcurveto
            40 76 35 167 46 vhcurveto
            -35 90 rlineto
            -235 -74 -80 -73 -72 vvcurveto
            return
          
                    </CharString>
                    <CharString index="79">
                        -63 callgsubr
            5 callgsubr
            return
          
                    </CharString>
                    <CharString index="80">
                        68.5 128 91 return
          
                    </CharString>
                    <CharString index="81">
                        48 callgsubr
            -151 hlineto
            -2 106 -1 84 -2 75 56 27 69 18 86 5 rrcurveto
            return
          
                    </CharString>
                    <CharString index="82">
                        73 194.5 70 return
          
                    </CharString>
                    <CharString index="83">
                        rmoveto
            -346 -95 346 hlineto
            return
          
                    </CharString>
                    <CharString index="84">
                        hstem
            66 115 189 38 callgsubr
            return
          
                    </CharString>
                    <CharString index="85">
                        -143 289 -36 -101 vvcurveto
            -52 -76 -36 -211 16 vhcurveto
            return
          
                    </CharString>
                    <CharString index="86">
                        160 -2 130 -2 93 vhcurveto
            20 31 32 13 38 hhcurveto
            return
          
                    </CharString>
                    <CharString index="87">
                        85 callgsubr
            -11 callsubr
            return
          
                    </CharString>
                    <CharString index="88">
                        -28 -88 hvcurveto
            -300 111 339 vlineto
            return
          
                    </CharString>
                    <CharString index="89">
                        rmoveto
            80 64 -163 208 166 199 -79 65 -166 -214 -5 -109 rlineto
            411 -213 rmoveto
            80 64 -164 206 168 201 -79 65 -167 -214 -5 -109 rlineto
            endchar
          
                    </CharString>
                    <CharString index="90">
                        6 callgsubr
            136 84 -82 89 return
          
                    </CharString>
                    <CharString index="91">
                        14 -59 85 callsubr
            -58 rrcurveto
            return
          
                    </CharString>
                    <CharString index="92">
                        rmoveto
            hintmask 01111000
            31 callgsubr
            hintmask 10111000
            -60 callsubr
          
                    </CharString>
                    <CharString index="93">
                        rmoveto
            213 181 84 147 145 vvcurveto
            142 -83 143 -210 180 vhcurveto
            -77 -69 rlineto
            193 -156 66 -123 -122 vvcurveto
            -121 -64 -120 -198 -159 vhcurveto
            endchar
          
                    </CharString>
                    <CharString index="94">
                        72 271 71 hstem
            99 89 173 88 vstem
            268 return
          
                    </CharString>
                    <CharString index="95">
                        -13 90 466 90 hstem
            49 106 240 106 vstem
            268 -13 rmoveto
            144 89 133 200 195 -73 118 -145 -144 -90 -133 -200 -195 73 -118 146 hvcurveto
            return
          
                    </CharString>
                    <CharString index="96">
                        hstem
            -6 callsubr
            vstem
            return
          
                    </CharString>
                    <CharString index="97">
                        -32 -116 -17 -128 4 -83 return
          
                    </CharString>
                    <CharString index="98">
                        112.5 return
          
                    </CharString>
                    <CharString index="99">
                        0 8 -2 3 -4 -4 -2 -3 48 callsubr
            0 -9 2 -3 4 4 2 3 48 callsubr
            return
          
                    </CharString>
                    <CharString index="100">
                        0 84 532 10 callgsubr
            return
          
                    </CharString>
                    <CharString index="101">
                        40 119 232 119 return
          
                    </CharString>
                    <CharString index="102">
                        -59 callsubr
            -9 callgsubr
            return
          
                    </CharString>
                    <CharString index="103">
                        16 callsubr
            22 -20 hstemhm
            73 callsubr
            hintmask 10110000
            return
          
                    </CharString>
                    <CharString index="104">
                        58 126 69 hstem
            111 83 159 85 vstem
            191 return
          
                    </CharString>
                    <CharString index="105">
                        -25 callsubr
            hstem
            249 86 vstem
            436 return
          
                    </CharString>
                    <CharString index="106">
                        62 callsubr
            hstem
            330 89 vstem
            431 return
          
                    </CharString>
                    <CharString index="107">
                        hstem
            1 callsubr
            vstem
            return
          
                    </CharString>
                    <CharString index="108">
                        48 113 229 112 return
          
                    </CharString>
                    <CharString index="109">
                        -31 50 -62 16 -118 6 -8 -93 rcurveline
            146 -7 27 -20 3 -96 rrcurveto
            -139 -2 -57 -60 -105 vvcurveto
            -80 42 -47 68 55 43 32 36 27 vhcurveto
            return
          
                    </CharString>
                    <CharString index="110">
                        0 84 331 83 return
          
                    </CharString>
                    <CharString index="111">
                        48 callgsubr
            -154 615 -251 hlineto
            return
          
                    </CharString>
                    <CharString index="112">
                        -58 -23 -34 -33 -47 vvcurveto
            return
          
                    </CharString>
                    <CharString index="113">
                        73 callgsubr
            -191 vlineto
            1 -8 -7 0 -8 hhcurveto
            -158 -129 -105 -184 53 callsubr
            hvcurveto
            endchar
          
                    </CharString>
                    <CharString index="114">
                        rmoveto
            177 96 -467 hlineto
            -8 -96 rlineto
            182 -524 116 hlineto
            return
          
                    </CharString>
                    <CharString index="115">
                        0 97 304.5 96.5 return
          
                    </CharString>
                    <CharString index="116">
                        63 -17 callsubr
            return
          
                    </CharString>
                    <CharString index="117">
                        76.5 return
          
                    </CharString>
                    <CharString index="118">
                        rmoveto
            -69 -49 54 118 110 53 56 76 22 24 -5 -8 25 hvcurveto
            -120 1 -97 2 -77 vhcurveto
            -19 -24 -28 -12 -33 hhcurveto
            return
          
                    </CharString>
                    <CharString index="119">
                        rmoveto
            179 16 53 47 72 201 return
          
                    </CharString>
                    <CharString index="120">
                        -573 rmoveto
            48 callgsubr
            hintmask 11101000
            -78 callsubr
          
                    </CharString>
                    <CharString index="121">
                        -9 callgsubr
            hintmask 0010011110000000
            return
          
                    </CharString>
                    <CharString index="122">
                        97 -9 -20 hstemhm
            75 113 204 116 return
          
                    </CharString>
                    <CharString index="123">
                        21 -21 620 -20 return
          
                    </CharString>
                    <CharString index="124">
                        -103 callsubr
            hintmask 11110010
            return
          
                    </CharString>
                    <CharString index="125">
                        37 -45 72 -25 135 2 rrcurveto
            -134 421 rmoveto
            34 13 -43 -83 1 hvcurveto
            -104 -2 rlineto
            94 2 14 34 40 hhcurveto
            return
          
                    </CharString>
                    <CharString index="126">
                        -110 -10 rlineto
            -134 -92 vlineto
            -10 -85 rlineto
            102 -247 hlineto
            return
          
                    </CharString>
                    <CharString index="127">
                        4 callsubr
            hintmask 10110000
            -10 -79 105 callgsubr
            4 callgsubr
            return
          
                    </CharString>
                    <CharString index="128">
                        124 14 -190 312 176 301 rlineto
            -122 hlineto
            -144 -259 rlineto
            -56 259 -114 hlineto
            return
          
                    </CharString>
                    <CharString index="129">
                        -7 99 433 100 hstem
            78 119 170 119 vstem
            return
          
                    </CharString>
                    <CharString index="130">
                        rmoveto
            242 -114 98 -319 -42 vhcurveto
            return
          
                    </CharString>
                    <CharString index="131">
                        -156 -21 675 51 callsubr
            return
          
                    </CharString>
                    <CharString index="132">
                        0 -24 callgsubr
            return
          
                    </CharString>
                    <CharString index="133">
                        -60 58 -42 95 vhcurveto
            return
          
                    </CharString>
                    <CharString index="134">
                        -15 90 347 91 return
          
                    </CharString>
                    <CharString index="135">
                        rmoveto
            234 215 7 109 -235 213 -74 -77 220 -192 -226 -190 rlineto
            endchar
          
                    </CharString>
                    <CharString index="136">
                        rmoveto
            74 78 -220 191 226 190 -74 78 -234 -215 -7 -109 rlineto
            endchar
          
                    </CharString>
                    <CharString index="137">
                        813 -24 callsubr
            return
          
                    </CharString>
                    <CharString index="138">
                        0 89 442 89 return
          
                    </CharString>
                    <CharString index="139">
                        98 -8 47 -27 -35 vvcurveto
            hintmask 10010000
            -44 -91 -44 -79 vvcurveto
            -76 76 -46 233 -75 vhcurveto
            endchar
          
                    </CharString>
                    <CharString index="140">
                        hmoveto
            6 147 rlineto
            -115 hlineto
            -6 -147 rlineto
            return
          
                    </CharString>
                    <CharString index="141">
                        135 13 68 44 55 vvcurveto
            return
          
                    </CharString>
                    <CharString index="142">
                        122 74 124 81 return
          
                    </CharString>
                    <CharString index="143">
                        hstem
            241 91 callgsubr
            return
          
                    </CharString>
                    <CharString index="144">
                        -20 30 -20 hstemhm
            return
          
                    </CharString>
                    <CharString index="145">
                        -16 94 -64 -21 549 94 -9 -20 hstemhm
            40 117 236 117 hintmask 10101100
            157 return
          
                    </CharString>
                    <CharString index="146">
                        -54 -179 rlineto
            -3 hlineto
            -56 179 rlineto
            -71 -334 64 hlineto
            -1 225 rlineto
            3 hlineto
            return
          
                    </CharString>
                    <CharString index="147">
                        hhcurveto
            67 49 -58 -115 -110 -59 -54 -76 hvcurveto
            -65 -247 74 callgsubr
            vlineto
            -1 return
          
                    </CharString>
                    <CharString index="148">
                        71 hstem
            35 callsubr
            vstem
            448 return
          
                    </CharString>
                    <CharString index="149">
                        0 -9 -7 -7 -9 -9 -7 6 48 callsubr
            return
          
                    </CharString>
                    <CharString index="150">
                        -7 101 -77 -21 523 110 return
          
                    </CharString>
                    <CharString index="151">
                        154 17 50 -78 -166 vvcurveto
            return
          
                    </CharString>
                    <CharString index="152">
                        38 48 -86 64 hhcurveto
            return
          
                    </CharString>
                    <CharString index="153">
                        51 callsubr
            23 -20 return
          
                    </CharString>
                    <CharString index="154">
                        hstemhm
            27 497 return
          
                    </CharString>
                    <CharString index="155">
                        0 hflex1
            return
          
                    </CharString>
                    <CharString index="156">
                        16 callsubr
            hstem
            34 callgsubr
            vstem
            return
          
                    </CharString>
                    <CharString index="157">
                        rmoveto
            331 hlineto
            10 88 rlineto
            -235 700 230 89 -336 hlineto
            endchar
          
                    </CharString>
                    <CharString index="158">
                        -20 24 -20 return
          
                    </CharString>
                    <CharString index="159">
                        rmoveto
            -6 -89 rlineto
            338 878 -334 -90 228 -699 hlineto
            endchar
          
                    </CharString>
                    <CharString index="160">
                        -148 77 -87 105 57 46 27 33 34 return
          
                    </CharString>
                    <CharString index="161">
                        190 37 callsubr
            return
          
                    </CharString>
                    <CharString index="162">
                        hstemhm
            71 111 return
          
                    </CharString>
                    <CharString index="163">
                        -5 92 320 96 -91 91 return
          
                    </CharString>
                    <CharString index="164">
                        3 callsubr
            19 -20 return
          
                    </CharString>
                    <CharString index="165">
                        -42 148 -7 vhcurveto
            return
          
                    </CharString>
                    <CharString index="166">
                        1 -76 99 -42 -41 vvcurveto
            -27 -34 -17 -115 -12 vhcurveto
            -3 -78 rlineto
            return
          
                    </CharString>
                    <CharString index="167">
                        14 -21 28 -21 28 -21 259 95 259 -20 hstemhm
            78 114 return
          
                    </CharString>
                    <CharString index="168">
                        75 28 callgsubr
            return
          
                    </CharString>
                    <CharString index="169">
                        75 252 77 return
          
                    </CharString>
                    <CharString index="170">
                        136 113 119 188 189 -106 110 -137 return
          
                    </CharString>
                    <CharString index="171">
                        rmoveto
            -22 callgsubr
            return
          
                    </CharString>
                    <CharString index="172">
                        84.5 -80.5 84.5 return
          
                    </CharString>
                    <CharString index="173">
                        rmoveto
            2 -40 callsubr
            -152 -66 callsubr
            hintmask 11100000
            return
          
                    </CharString>
                    <CharString index="174">
                        119 14 -173 256 57 74 53 78 49 77 rlinecurve
            return
          
                    </CharString>
                    <CharString index="175">
                        508 322 23 callsubr
            return
          
                    </CharString>
                    <CharString index="176">
                        -128 73 -50 224 4 vhcurveto
            return
          
                    </CharString>
                    <CharString index="177">
                        73 callgsubr
            -701 111 return
          
                    </CharString>
                    <CharString index="178">
                        -221 37 callgsubr
            return
          
                    </CharString>
                    <CharString index="179">
                        103.5 return
          
                    </CharString>
                    <CharString index="180">
                        218 116 return
          
                    </CharString>
                    <CharString index="181">
                        10 hlineto
            0 6 -1 3 -4 -3 -2 -2 48 callsubr
            return
          
                    </CharString>
                    <CharString index="182">
                        rmoveto
            -46 callsubr
            return
          
                    </CharString>
                    <CharString index="183">
                        -21 25 -21 return
          
                    </CharString>
                    <CharString index="184">
                        -6 2 -3 5 4 2 2 4 1 vhcurveto
            5 hlineto
            return
          
                    </CharString>
                    <CharString index="185">
                        hintmask 100000000000000000000000000000001000000000000000
            return
          
                    </CharString>
                    <CharString index="186">
                        hstem
            72 406 vstem
            478 return
          
                    </CharString>
                    <CharString index="187">
                        84 callsubr
            126.5 65 return
          
                    </CharString>
                    <CharString index="188">
                        88 rlineto
            -80 6 -29 16 22 vvcurveto
            23 28 28 return
          
                    </CharString>
                    <CharString index="189">
                        rmoveto
            25 hlineto
            48 166 rlineto
            2 -225 65 return
          
                    </CharString>
                    <CharString index="190">
                        21 -21 524 96 hstem
            73 callsubr
            vstem
            return
          
                    </CharString>
                    <CharString index="191">
                        63.5 return
          
                    </CharString>
                    <CharString index="192">
                        14 -59 14 return
          
                    </CharString>
                    <CharString index="193">
                        98 callsubr
            hintmask 01111100
            return
          
                    </CharString>
                    <CharString index="194">
                        -123 -185 vhcurveto
            63 3 rmoveto
            157 return
          
                    </CharString>
                    <CharString index="195">
                        rmoveto
            104 callgsubr
            return
          
                    </CharString>
                    <CharString index="196">
                        hstemhm
            61 119 return
          
                    </CharString>
                    <CharString index="197">
                        hstemhm
            49 122 return
          
                    </CharString>
                    <CharString index="198">
                        -15 89 -68 -21 438 90 -19 -20 return
          
                    </CharString>
                    <CharString index="199">
                        72 -17 59 -30 42 vhcurveto
            43 61 rlineto
            return
          
                    </CharString>
                    <CharString index="200">
                        -162 3 2 149 -106 1 rlineto
            return
          
                    </CharString>
                    <CharString index="201">
                        rmoveto
            235 75 80 73 -1 72 rrcurveto
            return
          
                    </CharString>
                    <CharString index="202">
                        hstem
            49 117 212 106 vstem
            return
          
                    </CharString>
                    <CharString index="203">
                        -20 hstem
            32 495 vstem
            199 return
          
                    </CharString>
                    <CharString index="204">
                        63 vstem
            36 305 rmoveto
            -187 return
          
                    </CharString>
                    <CharString index="205">
                        -20 90 callsubr
            227 104 return
          
                    </CharString>
                    <CharString index="206">
                        hstem
            120 315 vstem
            355 return
          
                    </CharString>
                    <CharString index="207">
                        -620 114 266 51 vlineto
            return
          
                    </CharString>
                    <CharString index="208">
                        rmoveto
            2 111 rlineto
            -116 hlineto
            return
          
                    </CharString>
                    <CharString index="209">
                        18 29 32 12 37 hhcurveto
            endchar
          
                    </CharString>
                    <CharString index="210">
                        hstem
            68 422 vstem
            return
          
                    </CharString>
                    <CharString index="211">
                        88.5 return
          
                    </CharString>
                <CharString name=".notdef">
                    -200 50 900 50 hstem
          5 54 432 54 vstem
          5 -200 rmoveto
          540 1000 -540 hlineto
          77 -50 rmoveto
          386 hlineto
          -193 -390 rlineto
          216 316 rmoveto
          -752 vlineto
          -186 376 rlineto
          -246 -376 rmoveto
          752 vlineto
          186 -376 rlineto
          30 -60 rmoveto
          193 -390 rlineto
          -386 hlineto
          endchar
        
                </CharString>
                <CharString name="A">
                    -11 callgsubr
          hintmask 10011100
          408 -4 -97 callgsubr
        
                </CharString>
                <CharString name="AE">
                    63 callgsubr
          253 524 -44 callsubr
        
                </CharString>
                <CharString name="AEacute">
                    63 callgsubr
          202 -89 callgsubr
          51 -206 -44 callsubr
        
                </CharString>
                <CharString name="Aacute">
                    -11 callgsubr
          hintmask 00111100
          155 -89 callgsubr
          hintmask 10011100
          253 -734 -97 callgsubr
        
                </CharString>
                <CharString name="Abreve">
                    -60 callgsubr
          65 89 47 callsubr
          hintmask 00111110
          274 -76 callgsubr
          hintmask 10011110
          134 -690 -97 callsubr
        
                </CharString>
                <CharString name="Acircumflex">
                    -11 callgsubr
          hintmask 00111100
          392 -54 callsubr
          hintmask 10011100
          143 -789 -97 callgsubr
        
                </CharString>
                <CharString name="Adieresis">
                    -60 callgsubr
          74 28 callgsubr
          107 -81 callgsubr
          hintmask 00111111
          441 -52 callsubr
          hintmask 10011111
          302 -699 rmoveto
          hintmask 00111111
          -77 callgsubr
          hintmask 01011111
          -94 callsubr
          hintmask 10011111
          -16 callsubr
          hintmask 00111111
          -93 callgsubr
        
                </CharString>
                <CharString name="Agrave">
                    -11 callgsubr
          hintmask 00111100
          386 -47 callgsubr
          hintmask 10011100
          53 -682 -97 callgsubr
        
                </CharString>
                <CharString name="Amacron">
                    -60 callgsubr
          97 95 47 callsubr
          hintmask 00111110
          446 30 callsubr
          hintmask 10011110
          -38 -722 -97 callsubr
        
                </CharString>
                <CharString name="Aogonek">
                    -220 87 154 -21 24 -21 22 -21 168 84 271 94 47 callsubr
          -227 105 hintmask 10011101
          502 -220 88 callsubr
          -30 15 23 vvcurveto
          22 28 29 94 41 vhcurveto
          -44 callgsubr
          rrcurveto
          -159 hlineto
          hintmask 01001110
          -94 callsubr
          hintmask 00101101
          14 -57 13 -56 13 -56 rrcurveto
          -77 -44 -32 -39 -39 vvcurveto
          hintmask 10011101
          -52 89 callgsubr
          -232 747 rmoveto
          8 hlineto
          hintmask 00011101
          -52 callgsubr
          hintmask 10011101
          -37 callsubr
        
                </CharString>
                <CharString name="Aring">
                    39 callgsubr
          273 890 -68 callsubr
        
                </CharString>
                <CharString name="Aringacute">
                    39 callgsubr
          155 973 -107 callgsubr
          118 -83 -68 callsubr
        
                </CharString>
                <CharString name="Atilde">
                    -60 callgsubr
          69 89 -3 90 47 callsubr
          hintmask 00111101
          350 690 -56 callsubr
          hintmask 00111011
          -71 callsubr
          hintmask 00111101
          45 callsubr
          hintmask 10011101
          58 -694 rmoveto
          hintmask 00111101
          -77 callgsubr
          hintmask 01011101
          -94 callsubr
          hintmask 10011101
          -16 callsubr
          hintmask 00111101
          -93 callgsubr
        
                </CharString>
                <CharString name="B">
                    -9 90 -60 -21 270 79 188 92 -9 -20 hstemhm
          84 113 176 110 -93 113 hintmask 10110101
          503 183 rmoveto
          78 -43 45 -77 22 vhcurveto
          hintmask 01101110
          60 28 40 48 71 vvcurveto
          141 -155 31 -244 -27 vhcurveto
          -620 vlineto
          hintmask 10110101
          240 -31 179 50 164 vvcurveto
          -306 351 rmoveto
          hintmask 10110110
          111 13 65 -26 -74 vvcurveto
          -72 -44 -30 -132 4 vhcurveto
          hintmask 10110101
          -263 vmoveto
          184 vlineto
          127 6 66 -16 -82 vvcurveto
          -85 -66 -24 -127 17 vhcurveto
          endchar
        
                </CharString>
                <CharString name="C">
                    22 callgsubr
          484 94 -55 callgsubr
        
                </CharString>
                <CharString name="Cacute">
                    22 callgsubr
          191 -89 callgsubr
          293 -636 -55 callgsubr
        
                </CharString>
                <CharString name="Ccaron">
                    22 callgsubr
          320 -53 callgsubr
          171 -582 -55 callgsubr
        
                </CharString>
                <CharString name="Ccedilla">
                    -7 101 -98 98 -72 -21 518 110 89 callsubr
          125 100 hintmask 10011100
          405 -114 rmoveto
          hintmask 00111100
          36 -29 40 -76 39 vhcurveto
          hintmask 01011100
          48 -8 58 -3 68 6 rrcurveto
          hintmask 10011100
          10 98 rlineto
          -71 callgsubr
          -129 44 -108 130 -46 vhcurveto
          -19 -43 rlineto
          -8 callgsubr
          endchar
        
                </CharString>
                <CharString name="Cdotaccent">
                    43 callsubr
          66 140 89 callsubr
          76 17 callgsubr
          hintmask 10111100
          369 -21 callgsubr
          230 -601 rmoveto
          -71 callgsubr
          hintmask 01111100
          21 callgsubr
        
                </CharString>
                <CharString name="D">
                    49 callgsubr
          508 322 -29 callgsubr
        
                </CharString>
                <CharString name="Dcaron">
                    49 callgsubr
          273 682 -99 callsubr
          242 -360 -29 callgsubr
        
                </CharString>
                <CharString name="Dcroat">
                    -65 callgsubr
        
                </CharString>
                <CharString name="E">
                    -13 callgsubr
          489 96 -78 callgsubr
        
                </CharString>
                <CharString name="Eacute">
                    -13 callgsubr
          171 -89 callgsubr
          318 -634 -78 callgsubr
        
                </CharString>
                <CharString name="Ebreve">
                    25 callsubr
          66 89 hstem
          96 38 callgsubr
          290 -76 callgsubr
          199 -590 -78 callgsubr
        
                </CharString>
                <CharString name="Ecaron">
                    -13 callgsubr
          299 -53 callgsubr
          197 -580 -78 callgsubr
        
                </CharString>
                <CharString name="Ecircumflex">
                    -13 callgsubr
          407 -54 callsubr
          209 -689 -78 callgsubr
        
                </CharString>
                <CharString name="Edieresis">
                    25 callsubr
          61 callsubr
          96 115 -88 -81 callgsubr
          hintmask 11111010
          457 695 -80 callgsubr
          hintmask 11110110
          -88 callsubr
          367 -599 rmoveto
          hintmask 11111010
          -86 callgsubr
        
                </CharString>
                <CharString name="Edotaccent">
                    25 callsubr
          61 callsubr
          96 115 24 17 callgsubr
          vstemhm
          348 -21 callgsubr
          256 -599 rmoveto
          hintmask 11111000
          -86 callgsubr
        
                </CharString>
                <CharString name="Egrave">
                    -13 callgsubr
          401 -47 callgsubr
          119 -582 -78 callgsubr
        
                </CharString>
                <CharString name="Emacron">
                    25 callsubr
          98 95 hstem
          96 38 callgsubr
          462 30 callsubr
          27 -622 -78 callgsubr
        
                </CharString>
                <CharString name="Eogonek">
                    -224 87 137 -17 callgsubr
          42 106 vstem
          468 -137 rmoveto
          78 callgsubr
          9 96 rlineto
          -82 callsubr
          269 hlineto
          -79 -45 -33 -39 -39 vvcurveto
          -52 57 58 callsubr
          endchar
        
                </CharString>
                <CharString name="Eth">
                    -65 callgsubr
        
                </CharString>
                <CharString name="Euro">
                    0 -21 204 79 -68 71 77 71 hstemhm
          115 102 hintmask 10111000
          486 70 rmoveto
          -157 23 -67 37 -28 64 rrcurveto
          194 hlineto
          4 71 rlineto
          -213 hlineto
          -2 15 0 16 17 vvcurveto
          10 0 10 1 9 vhcurveto
          216 hlineto
          4 71 rlineto
          -210 hlineto
          21 70 63 30 166 24 -17 106 rcurveline
          -217 -39 -87 -78 -29 -105 rrcurveto
          -72 -79 60 hlineto
          hintmask 11011000
          -1 -10 0 -11 -11 vvcurveto
          -17 1 -16 1 -15 vhcurveto
          -61 -79 74 hlineto
          34 -114 94 -70 214 -20 rrcurveto
          endchar
        
                </CharString>
                <CharString name="F">
                    21 -21 255 89 180 96 hstem
          102 38 callgsubr
          453 255 rmoveto
          89 -236 180 277 96 -392 -620 115 255 vlineto
          endchar
        
                </CharString>
                <CharString name="G">
                    71 callgsubr
          95 callsubr
          485 8 -87 callgsubr
          endchar
        
                </CharString>
                <CharString name="Gbreve">
                    71 callgsubr
          57 89 95 callsubr
          294 -76 callgsubr
          191 -678 -87 callgsubr
          endchar
        
                </CharString>
                <CharString name="Gcommaaccent">
                    71 callgsubr
          hstemhm
          49 117 74 118 20 106 hintmask 11101000
          485 8 -87 callgsubr
          hintmask 11111000
          -264 -283 -100 callsubr
        
                </CharString>
                <CharString name="Gdotaccent">
                    71 callgsubr
          66 28 callgsubr
          49 117 73 17 callgsubr
          23.5 106 vstemhm
          352 -21 callgsubr
          hintmask 11110100
          248 -687 -87 callgsubr
          endchar
        
                </CharString>
                <CharString name="H">
                    21 -21 269 88 263 -20 hstem
          69 117 178 118 vstem
          364 hmoveto
          118 620 -118 -263 -178 263 -117 -620 117 269 178 hlineto
          endchar
        
                </CharString>
                <CharString name="Hbar">
                    21 -21 252 88 96 78 -74 70 -70 180 hstemhm
          69 117 178 118 hintmask 11010110
          364 340 rmoveto
          -178 100 178 hlineto
          -440 vmoveto
          118 hlineto
          hintmask 11100110
          436 63 78 -63 vlineto
          hintmask 11001110
          106 -118 vlineto
          hintmask 11010110
          -110 -178 vlineto
          hintmask 11001110
          110 -117 vlineto
          hintmask 11100110
          -106 -63 -78 63 -436 117 252 178 vlineto
          endchar
        
                </CharString>
                <CharString name="I">
                    15 callgsubr
          333 531 -83 callgsubr
        
                </CharString>
                <CharString name="Iacute">
                    15 callgsubr
          160 -89 callgsubr
          173 -199 -83 callgsubr
        
                </CharString>
                <CharString name="Ibreve">
                    31 callsubr
          66 89 36 callgsubr
          279 -76 callgsubr
          54 -155 -83 callgsubr
        
                </CharString>
                <CharString name="Icircumflex">
                    15 callgsubr
          397 -54 callsubr
          63 -254 -83 callgsubr
        
                </CharString>
                <CharString name="Idieresis">
                    31 callsubr
          61 callsubr
          112 -15 callgsubr
          -7.5 115 2 -9 callsubr
          hintmask 11110100
          446 -52 callsubr
          hintmask 11101000
          222 -164 -83 callgsubr
        
                </CharString>
                <CharString name="Idotaccent">
                    31 callsubr
          61 callsubr
          218 115 -108 17 callgsubr
          hintmask 11101000
          338 -21 callgsubr
          hintmask 11110000
          110 -164 -83 callgsubr
        
                </CharString>
                <CharString name="Igrave">
                    15 callgsubr
          391 -47 callgsubr
          -27 -147 -83 callgsubr
        
                </CharString>
                <CharString name="Imacron">
                    31 callsubr
          98 95 36 callgsubr
          451 30 callsubr
          -118 -187 -83 callgsubr
        
                </CharString>
                <CharString name="Iogonek">
                    -221 88 133 89 442 89 hstemhm
          154 105 -41 115 hintmask 11101000
          368 -133 rmoveto
          hintmask 11110000
          -80 6 -29 16 24 vvcurveto
          21 16 28 50 38 vhcurveto
          148 hlineto
          8 89 rlineto
          hintmask 11101000
          -148 442 -41 callsubr
          hlineto
          hintmask 11110000
          -143 -89 156 hlineto
          -54 -42 -23 -38 -35 vvcurveto
          -57 56 58 callsubr
          endchar
        
                </CharString>
                <CharString name="J">
                    -10 100 439 91 hstem
          320 116 vstem
          116 620 rmoveto
          -91 204 -319 vlineto
          -108 -20 -22 -221 10 vhcurveto
          -100 vlineto
          269 -6 88 67 160 vvcurveto
          409 vlineto
          endchar
        
                </CharString>
                <CharString name="K">
                    60 callsubr
          hintmask 10011100
          404 -7 rmoveto
          hintmask 00111100
          21 callsubr
          hintmask 01011100
          100 callsubr
          endchar
        
                </CharString>
                <CharString name="Kcommaaccent">
                    60 callsubr
          32 118 hintmask 10011110
          404 -7 rmoveto
          hintmask 00111110
          21 callsubr
          hintmask 01011110
          100 callsubr
          -38 -539 -100 callsubr
        
                </CharString>
                <CharString name="L">
                    54 callgsubr
          65 callgsubr
          endchar
        
                </CharString>
                <CharString name="Lacute">
                    54 callgsubr
          178 -89 callgsubr
          311 -730 rmoveto
          9 callgsubr
          endchar
        
                </CharString>
                <CharString name="Lcaron">
                    72 callgsubr
          105 -20 hstem
          104 115 152 107 vstem
          353 465 -47 callsubr
          136 -465 rmoveto
          9 callgsubr
          endchar
        
                </CharString>
                <CharString name="Lcommaaccent">
                    72 callgsubr
          hstemhm
          104 115 25 118 hintmask 11100000
          65 callgsubr
          hintmask 11110000
          121 -65 callsubr
        
                </CharString>
                <CharString name="Ldot">
                    0 96 164 129 231 -20 hstem
          104 115 161 91 callgsubr
          65 callgsubr
          385 260 rmoveto
          6 129 rlineto
          -111 hlineto
          -8 -129 rlineto
          endchar
        
                </CharString>
                <CharString name="Lslash">
                    54 callgsubr
          489 hmoveto
          58 callgsubr
          240 hlineto
          132 67 -17 75 -115 -58 rlineto
          200 -115 -258 vlineto
          -77 -39 17 -75 60 30 rlineto
          -278 vlineto
          endchar
        
                </CharString>
                <CharString name="M">
                    21 -21 123 128 163 206 0 -20 hstemhm
          59 100 228 103 hintmask 11011100
          380 620 rmoveto
          0 -95 -342 -7 -27 vhcurveto
          -4 hlineto
          -7 27 -96 342 0 vvcurveto
          -112 -620 103 hlineto
          hintmask 11101100
          -6 414 rlineto
          4 hlineto
          82 -291 rlineto
          63 hlineto
          81 291 rlineto
          4 hlineto
          -6 -414 rlineto
          106 620 hlineto
          endchar
        
                </CharString>
                <CharString name="N">
                    49 callsubr
          383 hmoveto
          -69 callgsubr
          endchar
        
                </CharString>
                <CharString name="NUL">
                    -107 endchar
        
                </CharString>
                <CharString name="Nacute">
                    49 callsubr
          158 -89 callgsubr
          225 -730 rmoveto
          -69 callgsubr
          endchar
        
                </CharString>
                <CharString name="Ncaron">
                    49 callsubr
          286 -53 callgsubr
          104 -676 rmoveto
          -69 callgsubr
          endchar
        
                </CharString>
                <CharString name="Ncommaaccent">
                    16 callsubr
          hstem
          69 104 51 118 35.5 72 callsubr
          vstem
          383 hmoveto
          -69 callgsubr
          29 -680 -100 callsubr
        
                </CharString>
                <CharString name="Ntilde">
                    16 callsubr
          90 89 -3 90 hstemhm
          34 callgsubr
          hintmask 11101100
          353 690 -57 callgsubr
          30 -690 rmoveto
          -69 callgsubr
          endchar
        
                </CharString>
                <CharString name="O">
                    -20 callsubr
          261 -16 -106 callsubr
        
                </CharString>
                <CharString name="OE">
                    25 callsubr
          hstem
          31 113 118 96 vstem
          144 315 rmoveto
          154 36 54 82 vhcurveto
          -427 vlineto
          -84 -1 -34 64 156 vvcurveto
          372 -219 rmoveto
          -158 174 124 84 -124 170 153 96 -223 hlineto
          -170 -87 -115 -206 -213 82 -86 174 hvcurveto
          223 hlineto
          endchar
        
                </CharString>
                <CharString name="Oacute">
                    -20 callsubr
          161 737 -107 callgsubr
          100 -753 -106 callsubr
        
                </CharString>
                <CharString name="Obreve">
                    85 callgsubr
          57 89 -11 callsubr
          280 693 -103 callgsubr
          -19 -709 -106 callsubr
        
                </CharString>
                <CharString name="Ocircumflex">
                    -20 callsubr
          397 690 -87 callsubr
          -9 -808 -106 callsubr
        
                </CharString>
                <CharString name="Odieresis">
                    85 callgsubr
          66 28 callgsubr
          40 119 -46 -81 callgsubr
          -57.5 119 hintmask 11101100
          447 702 17 callsubr
          149 -718 -106 callsubr
        
                </CharString>
                <CharString name="Ograve">
                    -20 callsubr
          391 733 -95 callsubr
          -99 -701 -106 callsubr
        
                </CharString>
                <CharString name="Ohungarumlaut">
                    -20 callsubr
          118 726 -86 callsubr
          -67 -740 -106 callsubr
        
                </CharString>
                <CharString name="Omacron">
                    85 callgsubr
          89 95 -11 callsubr
          452 820 -24 callsubr
          -191 -741 -106 callsubr
        
                </CharString>
                <CharString name="Omega">
                    0 89 444 101 hstem
          65 106 207 109 vstem
          238 6 rmoveto
          -45 144 -22 117 87 vvcurveto
          115 37 64 68 66 36 -65 -117 -87 -20 -117 -44 -141 vhcurveto
          1 -6 rlineto
          191 89 -83 hlineto
          43 106 21 96 85 vvcurveto
          153 -72 105 -135 -138 -77 -106 -155 -83 21 -96 42 -105 vhcurveto
          -83 -89 190 hlineto
          endchar
        
                </CharString>
                <CharString name="Oslash">
                    38 callsubr
          318 rmoveto
          -73 callgsubr
        
                </CharString>
                <CharString name="Oslashacute">
                    38 callsubr
          738 -107 callgsubr
          -420 vmoveto
          -73 callgsubr
        
                </CharString>
                <CharString name="Otilde">
                    85 callgsubr
          61 89 -3 90 hstemhm
          -6 callsubr
          hintmask 11101100
          356 697 -57 callgsubr
          -95 -713 -106 callsubr
        
                </CharString>
                <CharString name="P">
                    21 -21 186 93 255 95 -10 -20 hstemhm
          87 114 196 113 hintmask 11101100
          201 hmoveto
          186 vlineto
          181 19 128 71 150 vvcurveto
          hintmask 11011100
          158 -139 74 -284 -39 vhcurveto
          -619 vlineto
          hintmask 11101100
          310 404 rmoveto
          -103 -68 -32 -128 13 vhcurveto
          249 vlineto
          131 15 65 -47 -95 vvcurveto
          endchar
        
                </CharString>
                <CharString name="Q">
                    7 -21 32 -21 544 95 hstemhm
          -6 callsubr
          hintmask 01111000
          443 -145 rmoveto
          33 93 -134 46 rlineto
          3 vlineto
          105 37 63 114 180 vvcurveto
          -77 callsubr
          hvcurveto
          hintmask 10111000
          -181 67 -108 119 -17 vhcurveto
          -18 -53 rlineto
          63 608 rmoveto
          81 39 -80 -159 -150 -33 -73 -79 -81 -39 80 159 150 33 73 79 hvcurveto
          endchar
        
                </CharString>
                <CharString name="R">
                    -28 callgsubr
          hintmask 10011011
          406 -9 -74 callsubr
        
                </CharString>
                <CharString name="R_p">
                    84 callgsubr
          181 76 callsubr
          24 -21 615 -20 25 -20 hstemhm
          27 83 198 79 hintmask 0110001110000000
          193 -4 rmoveto
          hintmask 0100110110000000
          83 7 -62 266 rlineto
          36 44 26 61 71 vvcurveto
          120 -74 78 -175 -25 vhcurveto
          hintmask 0101001110000000
          -618 86 vlineto
          -6 226 36 2 rlineto
          244 -392 rmoveto
          hintmask 1000101110000000
          167 vlineto
          77 -4 69 69 189 vvcurveto
          194 -54 70 -112 -60 vhcurveto
          -2 17 -57 -1 rlineto
          -651 vlineto
          endchar
        
                </CharString>
                <CharString name="Racute">
                    -28 callgsubr
          hintmask 00111011
          143 737 -107 callgsubr
          hintmask 10011011
          263 -746 -74 callsubr
        
                </CharString>
                <CharString name="Rcaron">
                    -28 callgsubr
          hintmask 00111011
          271 683 -99 callsubr
          hintmask 10011011
          142 -692 -74 callsubr
        
                </CharString>
                <CharString name="Rcommaaccent">
                    -43 callgsubr
          50 118 9 113 hintmask 1001101010000000
          406 -9 rmoveto
          hintmask 0011011010000000
          -36 callgsubr
          hintmask 0101101010000000
          -58 callgsubr
          hintmask 0011101110000000
          31 -569 -100 callsubr
        
                </CharString>
                <CharString name="S">
                    22 callsubr
          80 96 -79 callgsubr
          endchar
        
                </CharString>
                <CharString name="Sacute">
                    22 callsubr
          170 735 -107 callgsubr
          -90 -639 -79 callgsubr
          endchar
        
                </CharString>
                <CharString name="Scaron">
                    22 callsubr
          298 681 -99 callsubr
          -211 -585 -79 callgsubr
          endchar
        
                </CharString>
                <CharString name="Scedilla">
                    -7 99 -70 -21 524 100 hstemhm
          78 119 73 100 -3 119 hintmask 10110100
          167 -232 rmoveto
          hintmask 01111000
          34 callsubr
          38 -32 42 -85 41 vhcurveto
          hintmask 01110100
          169 26 64 79 76 -57 callsubr
          vvcurveto
          hintmask 10110100
          -22 callsubr
          -103 vlineto
          hintmask 10111000
          41 -2 37 1 51 callgsubr
        
                </CharString>
                <CharString name="Scommaaccent">
                    -7 99 433 100 hstemhm
          78 119 19 118 33 119 hintmask 11101000
          80 96 -79 callgsubr
          hintmask 11111000
          117 -372 -100 callsubr
        
                </CharString>
                <CharString name="T">
                    83 callsubr
          334 524 7 callsubr
          endchar
        
                </CharString>
                <CharString name="Tcaron">
                    83 callsubr
          281 -53 callgsubr
          60 -152 7 callsubr
          endchar
        
                </CharString>
                <CharString name="Tcommaaccent">
                    21 -21 524 96 hstemhm
          73 callsubr
          -115 118 hintmask 11100000
          334 524 7 callsubr
          -134 -266 rmoveto
          hintmask 11010000
          -62 callsubr
          hintmask 11100000
          -84 callgsubr
        
                </CharString>
                <CharString name="Thorn">
                    21 -21 434 94 -94 186 hstemhm
          87 115 197 112 hintmask 10111000
          202 hmoveto
          98 vlineto
          182 19 127 70 146 vvcurveto
          hintmask 11011000
          134 -104 71 -205 -10 vhcurveto
          hintmask 10111000
          92 -115 -620 vlineto
          312 310 rmoveto
          -96 -69 -31 -128 12 vhcurveto
          236 vlineto
          130 14 67 -44 -91 vvcurveto
          endchar
        
                </CharString>
                <CharString name="U">
                    -19 callgsubr
          270 -16 -102 callgsubr
        
                </CharString>
                <CharString name="Uacute">
                    -19 callgsubr
          157 -89 callgsubr
          113 -746 -102 callgsubr
        
                </CharString>
                <CharString name="Ubreve">
                    27 callgsubr
          86 89 -23 callsubr
          276 -76 callgsubr
          -6 -702 -102 callgsubr
        
                </CharString>
                <CharString name="Ucircumflex">
                    -19 callgsubr
          394 -54 callsubr
          3 -801 -102 callgsubr
        
                </CharString>
                <CharString name="Udieresis">
                    27 callgsubr
          95 28 callgsubr
          66 115 -72 -81 callgsubr
          -74.5 115 hintmask 11101100
          443 695 17 callsubr
          162 -711 -102 callgsubr
        
                </CharString>
                <CharString name="Ugrave">
                    -19 callgsubr
          388 -47 callgsubr
          -87 -694 -102 callgsubr
        
                </CharString>
                <CharString name="Uhungarumlaut">
                    -19 callgsubr
          114 719 -86 callsubr
          -54 -733 -102 callgsubr
        
                </CharString>
                <CharString name="Umacron">
                    27 callgsubr
          118 95 -23 callsubr
          448 30 callsubr
          -178 -734 -102 callgsubr
        
                </CharString>
                <CharString name="Uogonek">
                    -224 87 122 98 -77 -21 635 -20 hstemhm
          66 115 -16 106 99 115 hintmask 11010110
          370 -224 88 callsubr
          -29 16 25 vvcurveto
          29 37 19 78 55 vhcurveto
          67 47 32 58 96 vvcurveto
          -55 callsubr
          vhcurveto
          hintmask 11011010
          -60 -37 39 89 hvcurveto
          409 -115 -414 vlineto
          -132 66 -79 116 -10 vhcurveto
          hintmask 10110110
          -61 -39 -22 -33 -36 vvcurveto
          hintmask 11010110
          -52 57 58 callsubr
          endchar
        
                </CharString>
                <CharString name="Uring">
                    27 callgsubr
          73 217 -23 callsubr
          275 890 -64 callgsubr
          -5 -906 -102 callgsubr
        
                </CharString>
                <CharString name="V">
                    -1 104 517 51 callsubr
          hstemhm
          29 492 hintmask 10110000
          356 -1 rmoveto
          hintmask 11010000
          61 208 54 207 50 206 rrcurveto
          -114 hlineto
          -39 -171 -41 -175 -45 -171 rrcurveto
          -9 hlineto
          hintmask 10110000
          -46 171 -42 179 -39 171 -117 -8 rcurveline
          50 -206 55 -203 61 -208 rrcurveto
          endchar
        
                </CharString>
                <CharString name="W">
                    -3 callgsubr
          353 hmoveto
          -100 callgsubr
        
                </CharString>
                <CharString name="Wacute">
                    -3 callgsubr
          160 -89 callgsubr
          193 -730 rmoveto
          -100 callgsubr
        
                </CharString>
                <CharString name="Wcircumflex">
                    -3 callgsubr
          397 -54 callsubr
          83 -785 rmoveto
          -100 callgsubr
        
                </CharString>
                <CharString name="Wdieresis">
                    0 151 469 -20 95 28 callgsubr
          39 111 -38 -81 callgsubr
          -42.5 107 hintmask 11101100
          446 -52 callsubr
          242 -695 rmoveto
          hintmask 11110010
          -100 callgsubr
        
                </CharString>
                <CharString name="Wgrave">
                    -3 callgsubr
          391 -47 callgsubr
          -7 -678 rmoveto
          -100 callgsubr
        
                </CharString>
                <CharString name="X">
                    18 -21 24 -21 24 -21 617 -20 23 -20 hstemhm
          29 495 hintmask 10001100
          397 -3 rmoveto
          hintmask 00110100
          126 6 -175 307 176 310 rlineto
          -123 hlineto
          -120 -231 rlineto
          hintmask 01001100
          -126 234 -126 -6 175 -308 -175 -309 rlineto
          122 hlineto
          120 229 rlineto
          endchar
        
                </CharString>
                <CharString name="Y">
                    -4 callsubr
          334 hmoveto
          -67 callgsubr
        
                </CharString>
                <CharString name="Yacute">
                    -4 callsubr
          159 733 -107 callgsubr
          175 -733 rmoveto
          -67 callgsubr
        
                </CharString>
                <CharString name="Ycircumflex">
                    -4 callsubr
          396 686 -87 callsubr
          65 -788 rmoveto
          -67 callgsubr
        
                </CharString>
                <CharString name="Ydieresis">
                    16 callsubr
          22 -20 96 28 callgsubr
          111 -15 callgsubr
          -6.5 116 0 -9 callsubr
          hintmask 10111010
          445 698 -103 callsubr
          hintmask 11010100
          224 -698 rmoveto
          206 vlineto
          -12 callgsubr
          hintmask 10110100
          -32 callsubr
        
                </CharString>
                <CharString name="Ygrave">
                    -4 callsubr
          390 729 -95 callsubr
          -25 -681 rmoveto
          -67 callgsubr
        
                </CharString>
                <CharString name="Z">
                    53 callgsubr
          486 hmoveto
          -50 callsubr
        
                </CharString>
                <CharString name="Zacute">
                    53 callgsubr
          169 -89 callgsubr
          317 -730 rmoveto
          -50 callsubr
        
                </CharString>
                <CharString name="Zcaron">
                    53 callgsubr
          297 -53 callgsubr
          196 -676 rmoveto
          -50 callsubr
        
                </CharString>
                <CharString name="Zdotaccent">
                    0 99 422 99 75 140 hstem
          234 17 callgsubr
          vstem
          347 -21 callgsubr
          254 -695 rmoveto
          -50 callsubr
        
                </CharString>
                <CharString name="a">
                    -61 callgsubr
          -10 callgsubr
          hintmask 10011110
          253 73 -93 callsubr
          hintmask 01011110
          47 callgsubr
          hintmask 00111110
          -101 callsubr
          hintmask 10011110
          -46 callgsubr
          hintmask 01011110
          -30 callsubr
        
                </CharString>
                <CharString name="aacute">
                    -61 callgsubr
          200 -20 -6 callgsubr
          153 615 -107 callgsubr
          100 -542 -105 callgsubr
        
                </CharString>
                <CharString name="abreve">
                    -61 callgsubr
          63 89 -6 callgsubr
          272 571 -103 callgsubr
          -19 -498 -105 callgsubr
        
                </CharString>
                <CharString name="acircumflex">
                    -61 callgsubr
          112 -20 33 -20 -10 callgsubr
          hintmask 1001101110000000
          390 568 -73 callsubr
          hintmask 1001110110000000
          13 callgsubr
          rlineto
          hintmask 1001101110000000
          -30 callgsubr
          -10 -597 -93 callsubr
          hintmask 0101101110000000
          47 callgsubr
          hintmask 0011101110000000
          -101 callsubr
          hintmask 1001101110000000
          -46 callgsubr
          hintmask 0101101110000000
          -30 callsubr
        
                </CharString>
                <CharString name="acute">
                    701 -20 hstem
          144 287 vstem
          144 -53 callsubr
          endchar
        
                </CharString>
                <CharString name="adieresis">
                    -61 callgsubr
          72 140 55 callgsubr
          -64 -81 callgsubr
          -76.5 110 hintmask 1001110110000000
          439 580 -103 callsubr
          hintmask 1001111001000000
          149 -507 -93 callsubr
          hintmask 0101110101000000
          47 callgsubr
          hintmask 0011111001000000
          -101 callsubr
          hintmask 1001111010000000
          -46 callgsubr
          hintmask 0101110101000000
          -30 callsubr
        
                </CharString>
                <CharString name="ae">
                    50 callgsubr
          hstemhm
          27 103 93 93 104 101 hintmask 01101111
          506 -7 18 callgsubr
          hintmask 01110111
          2 callsubr
          hintmask 01101111
          18 callsubr
          hintmask 10101111
          14 callgsubr
        
                </CharString>
                <CharString name="aeacute">
                    50 callgsubr
          196 -20 hstemhm
          27 103 93 93 104 101 hintmask 0110111110000000
          158 609 -107 callgsubr
          348 -616 18 callgsubr
          hintmask 0111011110000000
          2 callsubr
          hintmask 0110111110000000
          18 callsubr
          hintmask 1010111110000000
          14 callgsubr
        
                </CharString>
                <CharString name="agrave">
                    -61 callgsubr
          193 -20 -6 callgsubr
          384 611 -95 callsubr
          -100 -490 -105 callgsubr
        
                </CharString>
                <CharString name="amacron">
                    -61 callgsubr
          95 95 -6 callgsubr
          444 698 -24 callsubr
          -191 -530 -105 callgsubr
        
                </CharString>
                <CharString name="ampersand">
                    -13 90 454 102 hstemhm
          30 106 -29 112 hintmask 11100000
          527 55 rmoveto
          -39 50 -36 43 -31 38 30 56 32 75 21 78 -94 11 rcurveline
          -10 -51 -17 -55 -18 -48 rrcurveto
          hintmask 11010000
          -99 116 -47 50 41 vvcurveto
          48 34 31 142 -7 vhcurveto
          -7 102 rlineto
          -214 4 -67 -92 -88 vvcurveto
          -41 19 -38 37 -50 vhcurveto
          hintmask 11100000
          -87 -54 -46 -61 -80 vvcurveto
          -83 51 -63 102 63 63 31 69 49 vhcurveto
          24 -30 26 -34 28 -37 rrcurveto
          -229 91 rmoveto
          -47 -24 35 45 42 22 40 46 36 hvcurveto
          29 -35 35 -41 40 -50 rrcurveto
          -49 -31 -33 -23 -37 hhcurveto
          endchar
        
                </CharString>
                <CharString name="aogonek">
                    -222 88 121 86 -65 -21 36 -21 217 69 126 94 55 callgsubr
          87 105 3 110 hintmask 1001111100000000
          461 -222 rmoveto
          9 81 callsubr
          94 41 vhcurveto
          hintmask 0100111010000000
          -101 callgsubr
          -81 60 -49 87 67 57 41 47 39 vhcurveto
          hintmask 0010111010000000
          3 -20 5 -29 2 -17 rrcurveto
          hintmask 0100111100000000
          -87 -47 -36 -42 -40 vvcurveto
          hintmask 1001111100000000
          -53 89 callgsubr
          hintmask 0100111010000000
          -211 295 rmoveto
          -49 -32 25 45 -35 callsubr
          -35 0 -26 1 -26 rrcurveto
          -33 -31 -45 -22 -40 hhcurveto
          endchar
        
                </CharString>
                <CharString name="approxequal">
                    94 95 1 94 31 94 2 94 -4 -20 hstemhm
          47 450 hintmask 01101100
          360 315 rmoveto
          62 37 53 105 38 hvcurveto
          -66 28 rlineto
          -54 -25 -19 -38 -24 hhcurveto
          hintmask 01010100
          -42 -48 96 -79 hhcurveto
          -64 -45 -58 -106 -38 hvcurveto
          65 -28 rlineto
          58 26 22 40 25 hhcurveto
          hintmask 01101100
          45 51 -96 79 hhcurveto
          hintmask 10010100
          -221 vmoveto
          62 37 54 104 38 hvcurveto
          -65 28 rlineto
          -54 -25 -20 -37 -24 hhcurveto
          hintmask 01010100
          -42 -48 95 -78 hhcurveto
          -65 -45 -58 -105 -38 hvcurveto
          66 -27 rlineto
          57 26 21 39 26 hhcurveto
          hintmask 10010100
          44 51 -96 79 hhcurveto
          endchar
        
                </CharString>
                <CharString name="aring">
                    -61 callgsubr
          50 217 -6 callgsubr
          271 775 -72 callgsubr
        
                </CharString>
                <CharString name="aringacute">
                    -61 callgsubr
          50 217 -6 callgsubr
          153 860 -107 callgsubr
          118 -85 -72 callgsubr
        
                </CharString>
                <CharString name="asciicircum">
                    503 -20 hstem
          49 458 vstem
          425 147 rmoveto
          82 57 -224 299 -20 -3 -214 -297 75 -56 147 212 rlineto
          endchar
        
                </CharString>
                <CharString name="asciitilde">
                    189 102 28 102 hstemhm
          30 490 vstemhm
          372 189 rmoveto
          66 44 73 125 38 hvcurveto
          -71 27 rlineto
          -73 -26 -22 -50 -25 hhcurveto
          hintmask 01100000
          -44 -72 130 -79 hhcurveto
          -65 -50 -77 -121 -36 hvcurveto
          71 -27 rlineto
          73 24 23 50 26 hhcurveto
          hintmask 11100000
          44 75 -130 79 hhcurveto
          endchar
        
                </CharString>
                <CharString name="asterisk">
                    244 450 hstem
          50 461 vstem
          363 244 rmoveto
          64 39 -58 139 142 56 -17 71 -151 -12 -9 152 -75 5 -35 -148 -145 41 -29 -69 130 -81 -82 -124 56 -50 115 98 rlineto
          endchar
        
                </CharString>
                <CharString name="asterisk.alt">
                    702 -20 hstemhm
          233 52.5 -20 52.5 hintmask 10100000
          318 539 rmoveto
          47 143 -98 20 -3 -152 rlineto
          -33 -11 rmoveto
          -100 112 -65 -76 129 -79 rlineto
          167 -33 rmoveto
          148 32 -33 95 -134 -74 rlineto
          -155 -53 rmoveto
          -147 -32 33 -94 133 73 rlineto
          113 -22 rmoveto
          100 -112 66 75 -130 80 rlineto
          hintmask 11000000
          -123 -43 rmoveto
          -49 -144 101 -19 1 152 rlineto
          endchar
        
                </CharString>
                <CharString name="at">
                    -157 88 128 85 246 90 116 89 hstem
          37 93 74 99 100 96 vstem
          453 -151 rmoveto
          -1 86 rlineto
          -263 -31 -59 125 228 vvcurveto
          232 88 107 97 56 25 -38 -78 6 vhcurveto
          -114 -2 -84 -70 -162 vvcurveto
          -113 -1 49 -74 66 hhcurveto
          38 26 16 34 27 hvcurveto
          2 -18 2 -22 1 -4 91 10 rcurveline
          -2 83 -4 88 207 vvcurveto
          151 -53 81 -120 -167 -122 -173 -269 -261 97 -174 319 41 vhcurveto
          -98 295 rmoveto
          -35 -17 40 80 87 18 51 82 -15 hvcurveto
          -220 vlineto
          -14 -14 -15 -9 -19 hhcurveto
          endchar
        
                </CharString>
                <CharString name="atilde">
                    -61 callgsubr
          67 89 -3 90 -10 callgsubr
          hintmask 1001110110000000
          348 575 -56 callsubr
          hintmask 1001101110000000
          -71 callsubr
          hintmask 1001110110000000
          45 callsubr
          -95 -502 -93 callsubr
          hintmask 0101110110000000
          47 callgsubr
          hintmask 0011110110000000
          -101 callsubr
          hintmask 1001110110000000
          -46 callgsubr
          hintmask 0101110110000000
          -30 callsubr
        
                </CharString>
                <CharString name="b">
                    -13 75 callgsubr
          202 110 hintmask 11011100
          228 -13 rmoveto
          144 129 108 179 145 -76 92 -105 -54 -44 -24 -30 -33 hvcurveto
          254 vlineto
          hintmask 11101100
          73 callgsubr
          -687 vlineto
          hintmask 11011100
          -18 46 49 -9 55 hhcurveto
          40 96 rmoveto
          -28 -25 5 9 -26 hvcurveto
          293 vlineto
          19 27 30 11 29 hhcurveto
          68 48 -58 -115 -113 -47 -51 -76 hvcurveto
          endchar
        
                </CharString>
                <CharString name="backslash">
                    -185 921 hstem
          -9 561 vstem
          88 736 rmoveto
          -97 -41 459 -880 102 30 rlineto
          endchar
        
                </CharString>
                <CharString name="bar">
                    709 -20 hstem
          223 105 vstem
          223 709 rmoveto
          -892 105 901 vlineto
          endchar
        
                </CharString>
                <CharString name="braceleft">
                    -213 946 -512 59 callgsubr
          -213 -29 callsubr
          hintmask 01000100
          59 callsubr
          hintmask 01001000
          32 callsubr
        
                </CharString>
                <CharString name="braceleft.cap">
                    -145 -21 434 59 callgsubr
          -166 -29 callsubr
          hintmask 11000100
          59 callsubr
          hintmask 11001000
          32 callsubr
        
                </CharString>
                <CharString name="braceright">
                    -212 946 -512 77 callgsubr
          hintmask 10000100
          101 -212 94 callsubr
          hintmask 01100000
          64 callgsubr
          hintmask 01010000
          -99 8 -46 27 34 vvcurveto
          hintmask 10001000
          33 callgsubr
          hintmask 10010000
          82 callgsubr
          hintmask 10100000
          -83 -26 -31 -41 -37 vvcurveto
          hintmask 10000100
          69 callgsubr
        
                </CharString>
                <CharString name="braceright.cap">
                    -145 -21 434 77 callgsubr
          hintmask 11000100
          101 -166 94 callsubr
          hintmask 11100000
          64 callgsubr
          hintmask 11010000
          -99 8 -46 27 34 vvcurveto
          hintmask 11001000
          33 callgsubr
          hintmask 11010000
          82 callgsubr
          hintmask 11100000
          -83 -26 -31 -41 -37 vvcurveto
          hintmask 11000100
          69 callgsubr
        
                </CharString>
                <CharString name="bracketleft">
                    -179 81 callgsubr
          -179 50 callsubr
        
                </CharString>
                <CharString name="bracketleft.cap">
                    -132 81 callgsubr
          -132 50 callsubr
        
                </CharString>
                <CharString name="bracketright">
                    -179 88 callgsubr
          -90 52 callsubr
        
                </CharString>
                <CharString name="bracketright.cap">
                    -132 88 callgsubr
          -43 52 callsubr
        
                </CharString>
                <CharString name="breve">
                    564 89 hstem
          78 395 vstem
          272 564 -103 callgsubr
          endchar
        
                </CharString>
                <CharString name="bullet">
                    157 282 hstem
          131 288 vstem
          419 300 rmoveto
          83 -60 56 -82 -80 -66 -56 -86 -83 61 -57 81 80 66 56 87 vhcurveto
          endchar
        
                </CharString>
                <CharString name="bullet.alt">
                    177 243 hstem
          154 242 vstem
          395 177 rmoveto
          2 243 rlineto
          -242 hlineto
          -2 -243 rlineto
          endchar
        
                </CharString>
                <CharString name="c">
                    57 callgsubr
          hstemhm
          72 110 hintmask 10110000
          72 241 rmoveto
          hintmask 01110000
          31 callgsubr
          hintmask 10110000
          -60 callsubr
        
                </CharString>
                <CharString name="cacute">
                    57 callgsubr
          196 -20 hstemhm
          72 110 hintmask 10111000
          177 -53 callsubr
          -105 -367 -15 callsubr
        
                </CharString>
                <CharString name="caron">
                    707 -20 hstem
          88 373 vstem
          279 554 -99 callsubr
          endchar
        
                </CharString>
                <CharString name="caron.alt">
                    551 255 hstem
          213 107 vstem
          195 566 -47 callsubr
          endchar
        
                </CharString>
                <CharString name="ccaron">
                    57 callgsubr
          202 -20 hstemhm
          72 110 hintmask 10111000
          305 554 -99 callsubr
          -226 -313 -15 callsubr
        
                </CharString>
                <CharString name="ccedilla">
                    -4 92 312 105 hstem
          72 110 131 100 vstem
          413 -118 rmoveto
          36 -29 39 -75 39 vhcurveto
          44 -5 52 0 60 5 11 92 rcurveline
          -67 callsubr
          -107 40 -90 129 -35 vhcurveto
          -17 -38 rlineto
          -8 callgsubr
          endchar
        
                </CharString>
                <CharString name="cdotaccent">
                    57 callgsubr
          68 28 callgsubr
          72 110 59 17 callgsubr
          hintmask 10111100
          354 573 -61 callsubr
          -167 -332 rmoveto
          hintmask 01111100
          31 callgsubr
          hintmask 10111100
          -60 callsubr
        
                </CharString>
                <CharString name="cedilla">
                    0 -21 hstem
          310 100 vstem
          221 -21 rmoveto
          -8 callgsubr
          44 -44 50 -121 48 vhcurveto
          endchar
        
                </CharString>
                <CharString name="cent">
                    31 93 268 98 130 -20 hstem
          69 105 vstem
          174 276 rmoveto
          51 25 45 97 15 vhcurveto
          -29 -230 rlineto
          -65 25 -28 39 55 vvcurveto
          275 -245 rmoveto
          12 93 -47 2 -41 5 -34 6 rlinecurve
          32 255 rlineto
          29 33 -1 -4 37 hvcurveto
          13 103 -34 2 -31 0 -29 -1 rlinecurve
          18 129 rlineto
          -96 hlineto
          -15 -138 rlineto
          -178 -30 -49 -95 -93 vvcurveto
          -90 47 -73 128 -40 vhcurveto
          -21 -145 rlineto
          97 hlineto
          14 125 34 -5 38 -3 43 -2 rlinecurve
          endchar
        
                </CharString>
                <CharString name="check.1">
                    -21 148 -127 -21 hstemhm
          56 464 hintmask 01100000
          520 654 rmoveto
          -113 35 rlineto
          hintmask 10100000
          -59 -162 -51 -191 -40 -209 rrcurveto
          -5 hlineto
          -101 242 -95 -41 153 -349 97 5 rlineto
          hintmask 01100000
          59 243 71 222 84 205 rrcurveto
          endchar
        
                </CharString>
                <CharString name="check.2">
                    6 -21 26 -21 hstemhm
          75 430 hintmask 01100000
          339 -10 rmoveto
          106 24 -134 259 194 379 -108 39 -143 -334 -77 164 -102 -37 119 -225 -118 -250 rlineto
          hintmask 10100000
          73 -24 100 196 rlineto
          endchar
        
                </CharString>
                <CharString name="circumflex">
                    626 -20 hstem
          88 373 vstem
          393 561 -87 callsubr
          endchar
        
                </CharString>
                <CharString name="colon">
                    0 140 181 28 callgsubr
          196.5 153 -145.5 152 hintmask 11010000
          355 321 66 callsubr
          144 -321 rmoveto
          5 -40 callsubr
          -153 hlineto
          -5 -39 callsubr
          endchar
        
                </CharString>
                <CharString name="colon.alt">
                    79 140 181 28 callgsubr
          200 152.5 -148.5 152 hintmask 11010000
          355 400 66 callsubr
          148 -321 rmoveto
          3 -40 callsubr
          -153 -66 callsubr
          endchar
        
                </CharString>
                <CharString name="colonmonetary">
                    21 95 383 100 hstemhm
          56 100 78.5 76 0 74 -15.5 75.5 hintmask 01110100
          331 137 rmoveto
          -24 5 -21 5 -19 7 29 321 rcurveline
          20 5 21 4 25 4 rrcurveto
          -206 -173 rmoveto
          60 20 46 59 31 vhcurveto
          -24 -269 rlineto
          -38 29 -17 41 62 vvcurveto
          hintmask 11101000
          149 -389 rmoveto
          75 hlineto
          9 103 rlineto
          hintmask 11110100
          22 -3 23 -3 25 -2 21 95 rcurveline
          -33 3 -31 4 -27 4 33 368 rcurveline
          26 2 28 1 30 1 -6 100 rcurveline
          -21 -1 -20 -1 -19 -2 9 98 rcurveline
          -75 hlineto
          -10 -107 -21 -3 -19 -4 -19 -5 rlinecurve
          11 119 rlineto
          -76 hlineto
          -11 -144 rlineto
          -131 -55 -42 -93 -102 vvcurveto
          -106 41 -67 90 -44 vhcurveto
          -16 -156 rlineto
          hintmask 11101000
          76 hlineto
          12 129 18 -5 19 -5 20 -4 rlinecurve
          endchar
        
                </CharString>
                <CharString name="comma">
                    -151 -21 hstem
          227 126 vstem
          178 -155 rmoveto
          59 -17 87 79 58 130 -45 112 rlinecurve
          -143 -7 51 -105 -10 -119 -57 -73 rlinecurve
          endchar
        
                </CharString>
                <CharString name="commaaccent">
                    -284 219 hstem
          219 118 vstem
          200 -65 callsubr
        
                </CharString>
                <CharString name="commaaccent.rot">
                    568 219 hstem
          209 118 vstem
          345 769 40 callgsubr
          endchar
        
                </CharString>
                <CharString name="copyright">
                    7 58 87 68 177 76 82 58 hstem
          37 63 74 76 200 63 vstem
          513 314 rmoveto
          186 -95 113 -133 -139 -109 -122 -185 -194 102 -105 140 133 101 113 194 vhcurveto
          -413 -4 rmoveto
          156 77 89 106 100 67 -90 -155 -164 -67 -81 -101 -104 -78 81 164 vhcurveto
          255 -90 rmoveto
          -83 -2 -22 29 70 vvcurveto
          51 13 29 89 vhcurveto
          -5 76 rlineto
          -130 -8 -43 -71 -84 vvcurveto
          -96 42 -71 132 9 vhcurveto
          endchar
        
                </CharString>
                <CharString name="d">
                    32 callgsubr
          hintmask 10010111
          277 78 11 callsubr
          hintmask 01010111
          97 -81 rmoveto
          hintmask 00110111
          103 42 callgsubr
          212 vlineto
          hintmask 10011011
          6 callsubr
        
                </CharString>
                <CharString name="dagger">
                    459 104 callsubr
          -84.5 104 callsubr
          147.5 -20 hstemhm
          224.5 93 -92.5 105 hintmask 10110000
          309 135 rmoveto
          17 325 160 -2 5 88 rlineto
          hintmask 10101000
          93 callsubr
          hintmask 01101000
          -149 vlineto
          -155 3 -5 -89 rlineto
          hintmask 01110000
          160 -2 -1 -352 17 -9 rlineto
          endchar
        
                </CharString>
                <CharString name="daggerdbl">
                    261 65 callsubr
          -15 callgsubr
          65 callsubr
          147.5 -20 hstemhm
          225 89 -89 105 hintmask 01101100
          310 83 rmoveto
          hintmask 10101100
          8 179 161 -2 6 84 -164 3 5 117 160 -2 5 84 rlineto
          hintmask 01101010
          93 callsubr
          hintmask 01011010
          -149 vlineto
          -155 3 -5 -85 rlineto
          hintmask 01011100
          160 -2 rlineto
          -118 vlineto
          -162 3 -5 -85 167 -2 rlineto
          -206 vlineto
          17 -9 rlineto
          endchar
        
                </CharString>
                <CharString name="dcaron">
                    32 callgsubr
          86 107 hintmask 1001011110000000
          538 566 -47 callsubr
          -261 -488 11 callsubr
          hintmask 0101011110000000
          97 -81 rmoveto
          hintmask 0011011110000000
          103 42 callgsubr
          212 vlineto
          hintmask 1001101110000000
          6 callsubr
        
                </CharString>
                <CharString name="dcroat">
                    -13 91 -60 -21 27 -21 411 92 64 70 65 -20 hstemhm
          49 110 199 112 hintmask 10011111
          277 78 rmoveto
          -69 -49 54 118 108 53 56 76 22 23 -5 -8 25 hvcurveto
          1 -120 1 -96 1 -77 rrcurveto
          -18 -24 -27 -12 -33 hhcurveto
          hintmask 01011111
          96 -81 rmoveto
          hintmask 00111111
          104 42 callgsubr
          70 62 71 -62 65 vlineto
          -112 -9 rlineto
          -56 -123 -70 123 -65 vlineto
          1 -7 -8 0 -7 hhcurveto
          -158 -129 -103 -181 hvcurveto
          hintmask 10011111
          53 callsubr
          vhcurveto
          endchar
        
                </CharString>
                <CharString name="degree">
                    301 82 216 83 hstem
          89 89 194 89 vstem
          461 495 rmoveto
          115 -77 72 -102 -102 -91 -77 -118 -115 78 -71 101 102 91 76 118 vhcurveto
          -89 -2 rmoveto
          -67 -1 -41 -43 -55 hhcurveto
          -57 -40 46 62 hvcurveto
          65 1 41 43 55 hhcurveto
          57 40 -46 -60 hvcurveto
          endchar
        
                </CharString>
                <CharString name="dieresis">
                    573 140 hstem
          109 -81 callgsubr
          vstem
          443 573 -103 callsubr
          endchar
        
                </CharString>
                <CharString name="divide">
                    63 111 77 93 77 111 hstem
          217 116 cntrmask 11100000
          332 421 101 callsubr
          -1 -111 rlineto
          276 -77 rmoveto
          -436 -93 436 hlineto
          -161 -188 101 callsubr
          -2 -111 rlineto
          endchar
        
                </CharString>
                <CharString name="dollar">
                    -78.5 201.5 -84 86 372 90 1 111 0 -20 hstemhm
          75 119 168 119 hintmask 10101110
          194 455 rmoveto
          26 26 16 63 vhcurveto
          -21 -115 rlineto
          -39 26 -29 24 23 vvcurveto
          168 -284 rmoveto
          -27 -27 -18 -62 -3 vhcurveto
          22 122 rlineto
          39 -26 28 -23 -25 vvcurveto
          -110 -250 rmoveto
          19 113 rlineto
          151 14 59 61 67 vvcurveto
          69 -84 54 -77 47 vhcurveto
          28 148 32 -3 38 -6 45 -9 rlinecurve
          hintmask 10010110
          13 103 -34 5 -32 2 -30 2 rlinecurve
          23 110 -99 1 rlineto
          hintmask 01101110
          -19 -112 rlineto
          -151 -12 -59 -63 -67 vvcurveto
          -68 84 -52 77 -45 vhcurveto
          -28 -155 -36 2 -44 6 -51 9 rlinecurve
          -20 -103 43 -5 40 -3 36 -1 rlinecurve
          hintmask 10101110
          -22 -108 rlineto
          endchar
        
                </CharString>
                <CharString name="dotaccent">
                    573 140 hstem
          217 17 callgsubr
          vstem
          330 573 -61 callsubr
          endchar
        
                </CharString>
                <CharString name="dotlessi">
                    3 callsubr
          36 callsubr
          517 hmoveto
          -70 callsubr
        
                </CharString>
                <CharString name="e">
                    -69 callsubr
          1 callgsubr
          464 -12 -107 callsubr
        
                </CharString>
                <CharString name="eacute">
                    -69 callsubr
          198 -20 1 callgsubr
          166 616 -107 callgsubr
          298 -628 -107 callsubr
        
                </CharString>
                <CharString name="ebreve">
                    -69 callsubr
          61 89 1 callgsubr
          285 572 -103 callgsubr
          179 -584 -107 callsubr
        
                </CharString>
                <CharString name="ecaron">
                    -69 callsubr
          191 -20 1 callgsubr
          294 562 -99 callsubr
          177 -574 -107 callsubr
        
                </CharString>
                <CharString name="ecircumflex">
                    -69 callsubr
          110 90 callgsubr
          57 110 216 109 hintmask 11101110
          402 569 -73 callsubr
          hintmask 11110110
          13 callgsubr
          rlineto
          hintmask 11101110
          -30 callgsubr
          189 -683 -107 callsubr
        
                </CharString>
                <CharString name="edieresis">
                    -69 callsubr
          70 28 callgsubr
          57 110 -49 -81 callgsubr
          -70.5 109 hintmask 11110110
          452 581 -103 callsubr
          hintmask 11111001
          347 -593 -107 callsubr
        
                </CharString>
                <CharString name="edotaccent">
                    -69 callsubr
          70 140 hstem
          57 110 63 17 callgsubr
          37.5 109 vstem
          343 581 -61 callsubr
          236 -593 -107 callsubr
        
                </CharString>
                <CharString name="egrave">
                    -69 callsubr
          191 -20 1 callgsubr
          396 612 -95 callsubr
          99 -576 -107 callsubr
        
                </CharString>
                <CharString name="eight">
                    -13 85 476 85 hstemhm
          63 106 -97 107 193 104 -95 107 hintmask 11100100
          264 -13 rmoveto
          138 86 77 97 77 -63 47 -70 40 hvcurveto
          hintmask 11011000
          76 38 45 49 73 vvcurveto
          90 -85 58 -109 -136 -74 -84 -83 -70 54 -47 64 -39 vhcurveto
          hintmask 11100100
          -79 -42 -48 -55 -73 vvcurveto
          -93 85 -60 116 vhcurveto
          hintmask 11011000
          -85 492 rmoveto
          36 32 33 64 66 31 -35 -49 -41 -28 -38 -47 -28 vhcurveto
          -63 35 -55 34 53 vvcurveto
          hintmask 11100100
          97 -407 rmoveto
          -73 -34 38 53 45 28 40 48 29 hvcurveto
          71 -40 65 -36 -54 vvcurveto
          -43 -41 -32 -64 vhcurveto
          endchar
        
                </CharString>
                <CharString name="eight.den">
                    -220 64 162 -21 31 -21 136 9 callsubr
          hintmask 10111001
          267 -220 rmoveto
          -40 callgsubr
          hintmask 10110110
          -63 callgsubr
          vhcurveto
          hintmask 11010101
          5 callgsubr
          hintmask 10111001
          -58 -23 -34 -33 -47 vvcurveto
          -33 callgsubr
        
                </CharString>
                <CharString name="eight.inf">
                    -160 2 callgsubr
          -160 -92 callsubr
        
                </CharString>
                <CharString name="eight.num">
                    415 64 141 -20 30 -20 156 9 callsubr
          hintmask 10111001
          267 415 rmoveto
          -40 callgsubr
          hintmask 11010110
          -28 callsubr
          hintmask 11011001
          5 callsubr
          hintmask 10111001
          -33 callgsubr
        
                </CharString>
                <CharString name="eight.small">
                    -10 2 callgsubr
          -10 -92 callsubr
        
                </CharString>
                <CharString name="eight.sup">
                    315 2 callgsubr
          315 -92 callsubr
        
                </CharString>
                <CharString name="ellipsis">
                    0 147 hstem
          34 115 68 115 68 115 cntrmask 01110000
          512 33 callsubr
          -68 33 callsubr
          -68 33 callsubr
          endchar
        
                </CharString>
                <CharString name="emacron">
                    -69 callsubr
          93 95 1 callgsubr
          457 699 -24 callsubr
          7 -616 -107 callsubr
        
                </CharString>
                <CharString name="emdash">
                    256 84 hstem
          55 446 vstem
          501 340 rmoveto
          -446 -84 439 hlineto
          endchar
        
                </CharString>
                <CharString name="endash">
                    256 84 hstem
          70 415 vstem
          485 340 rmoveto
          -415 -84 406 hlineto
          endchar
        
                </CharString>
                <CharString name="eogonek">
                    -222 87 136 80 -68 -21 231.5 -27 callsubr
          hstemhm
          57 110 67 105 44 109 hintmask 11011111
          438 -222 88 callsubr
          -29 16 22 vvcurveto
          hintmask 10111111
          20 28 27 97 35 vhcurveto
          hintmask 11011111
          11 89 -98 callsubr
          -150 81 -89 217 hvcurveto
          -86 -42 -35 -42 -40 vvcurveto
          -50 56 58 callsubr
          -158 642 -88 callgsubr
        
                </CharString>
                <CharString name="equal">
                    144 94 126 94 79 callsubr
          458 rmoveto
          -406 -94 406 hlineto
          -126 vmoveto
          -406 -94 406 hlineto
          endchar
        
                </CharString>
                <CharString name="eth">
                    -14 90 297 88 169 -20 102 -20 hstem
          50 109 231 107 vstem
          263 -14 rmoveto
          125 109 95 179 121 -43 104 -90 95 hvcurveto
          80 37 -24 63 -109 -50 -32 28 -37 27 -41 27 rlinecurve
          -72 -66 31 -20 28 -20 25 -20 rlinecurve
          -99 -45 24 -63 129 59 24 -25 20 -25 17 -26 rlinecurve
          -143 3 -135 -84 -164 vvcurveto
          -144 96 -86 117 vhcurveto
          14 90 rmoveto
          -66 -52 58 96 113 69 61 147 -46 hvcurveto
          10 -35 5 -36 -38 vvcurveto
          -115 -43 -58 -70 vhcurveto
          endchar
        
                </CharString>
                <CharString name="exclam">
                    0 131 hstemhm
          199.5 143.5 -103 74 hintmask 10100000
          314 245 rmoveto
          1 44 37 342 2 46 rrcurveto
          -142 hlineto
          1 -46 27 -342 -44 vvcurveto
          hintmask 11000000
          101 -245 rmoveto
          4 131 rlineto
          -144 hlineto
          -3 -131 rlineto
          endchar
        
                </CharString>
                <CharString name="exclamdown">
                    490 131 hstemhm
          207.5 143.5 -115 74 hintmask 11000000
          209 621 rmoveto
          -3 -131 rlineto
          144 hlineto
          2 131 rlineto
          hintmask 10100000
          -116 -245 rmoveto
          -1 -44 -37 -342 -2 -46 rrcurveto
          143 hlineto
          -1 46 -28 342 44 vvcurveto
          endchar
        
                </CharString>
                <CharString name="f">
                    0 83 309 85 129 108 hstem
          202 111 vstem
          471 83 rmoveto
          -158 309 168 85 -168 18 hlineto
          89 19 16 182 6 vhcurveto
          -7 108 rlineto
          -233 -12 -72 -96 -128 vvcurveto
          -1 -122 vlineto
          -10 -85 rlineto
          132 -309 -126 -83 385 hlineto
          endchar
        
                </CharString>
                <CharString name="five">
                    8 -21 536.5 96.5 hstem
          108.5 98 166.5 104 vstem
          477 209 rmoveto
          80 -64 70 -211 26 vhcurveto
          9 139 239 -1 8 97 rlineto
          -340 hlineto
          -19 -307 rlineto
          203 -20 71 -40 -51 vvcurveto
          -63 -72 -31 -218 -19 vhcurveto
          6 -102 rlineto
          271 18 117 90 114 vvcurveto
          endchar
        
                </CharString>
                <CharString name="five.den">
                    -221 -32 callgsubr
          -80 -104 callsubr
        
                </CharString>
                <CharString name="five.inf">
                    -161 -32 callgsubr
          -20 -104 callsubr
        
                </CharString>
                <CharString name="five.num">
                    414 79 252 75 hstem
          148.5 76.5 122 82 vstem
          -25 callgsubr
          endchar
        
                </CharString>
                <CharString name="five.small">
                    -11 -32 callgsubr
          130 -104 callsubr
        
                </CharString>
                <CharString name="five.sup">
                    314 -32 callgsubr
          455 -104 callsubr
        
                </CharString>
                <CharString name="fiveeighths">
                    3 callgsubr
          73 37 callgsubr
          6 callgsubr
          -60.5 10 callsubr
          122 82 -82 89 hintmask 1011111001100000
          -38 callsubr
          hintmask 1011111100010000
          207 -561 rmoveto
          -40 callgsubr
          hintmask 1011111010100000
          -63 callgsubr
          vhcurveto
          hintmask 1101111010100000
          5 callgsubr
          hintmask 1011111100100000
          5 callsubr
          hintmask 1011111100010000
          26 callsubr
          hintmask 1011111010100000
          -89 callsubr
          hintmask 1011111100010000
          -91 callsubr
        
                </CharString>
                <CharString name="fivesixths">
                    -220 70 125 58 236 72 73 37 callgsubr
          hstemhm
          112 84 -47.5 10 callsubr
          122 82 -74 83 hintmask 1111101100000000
          -38 callsubr
          hintmask 1111110010000000
          214 -561 -94 callgsubr
        
                </CharString>
                <CharString name="four">
                    0 213 -96 96 406 -20 28 -20 hstemhm
          73 87 181 102 hintmask 01011100
          505 117 rmoveto
          9 96 rlineto
          -71 217 hlineto
          -102 -11 rlineto
          -206 -181 vlineto
          hintmask 01101100
          2 28 82 331 11 47 rrcurveto
          hintmask 01011100
          -119 8 -45 -182 -22 -199 4 -129 rlinecurve
          268 hlineto
          hintmask 10011100
          -117 102 vlineto
          hintmask 01011100
          117 vlineto
          endchar
        
                </CharString>
                <CharString name="four.den">
                    -135.5 41 callsubr
          -136 -90 callsubr
        
                </CharString>
                <CharString name="four.inf">
                    -75.5 71 21.5 -21 hstemhm
          35 callsubr
          hintmask 10010000
          448 -76 75 callsubr
          rlineto
          hintmask 01110000
          -51 callsubr
          rlineto
          hintmask 10110000
          -10 callsubr
          198 1 rcurveline
          0 callgsubr
          endchar
        
                </CharString>
                <CharString name="four.num">
                    499.5 41 callsubr
          499 -90 callsubr
        
                </CharString>
                <CharString name="four.small">
                    0 145.5 -71 71 hstemhm
          35 callsubr
          hintmask 01010000
          448 74 rmoveto
          hintmask 10110000
          -46 callsubr
          -51 callsubr
          rlineto
          hintmask 01110000
          -10 callsubr
          198 1 rcurveline
          hintmask 10010000
          -1 -75 rlineto
          83 hlineto
          hintmask 01010000
          -1 75 rlineto
          endchar
        
                </CharString>
                <CharString name="four.sup">
                    399.5 41 callsubr
          399 -90 callsubr
        
                </CharString>
                <CharString name="fourfifths">
                    45 callgsubr
          158.5 71 hstemhm
          122 74 -47.5 10 callsubr
          95 81 -54 82 hintmask 01110110
          448 499 75 callsubr
          rlineto
          hintmask 01111010
          -84 callsubr
          -341 -231 -49 callsubr
          hintmask 11110101
          -83 callsubr
        
                </CharString>
                <CharString name="fraction">
                    -160 918 hstem
          23 498 vstem
          117 -160 rmoveto
          404 879 -94 39 -404 -880 rlineto
          endchar
        
                </CharString>
                <CharString name="fraction.afrc">
                    269 72 hstem
          60 430 vstem
          60 269 -49 callsubr
          endchar
        
                </CharString>
                <CharString name="g">
                    30 callgsubr
          92 callgsubr
          122 -175 rmoveto
          -96 callgsubr
        
                </CharString>
                <CharString name="gbreve">
                    30 callgsubr
          61 89 92 callgsubr
          289 571 -103 callgsubr
          -167 -746 rmoveto
          -96 callgsubr
        
                </CharString>
                <CharString name="gcommaaccent">
                    30 callgsubr
          hstemhm
          51 110 60 118 23 112 vstemhm
          357 776 40 callgsubr
          -235 -951 rmoveto
          hintmask 11110100
          -96 callgsubr
        
                </CharString>
                <CharString name="gdotaccent">
                    30 callgsubr
          70 28 callgsubr
          51 110 73 17 callgsubr
          12.5 112 vstemhm
          347 580 -61 callsubr
          -110 -755 rmoveto
          hintmask 11111010
          -96 callgsubr
        
                </CharString>
                <CharString name="germandbls">
                    -7 94 -87 87 531 94 hstemhm
          69 110 77 108 -19 111 -41 112 hintmask 10111010
          364 357 rmoveto
          hintmask 01110100
          50 92 45 112 vvcurveto
          71 -49 77 -113 -146 -79 -110 -145 vhcurveto
          -457 110 481 vlineto
          95 29 42 61 52 24 -37 -41 vhcurveto
          -72 -89 -50 -76 vvcurveto
          hintmask 10111010
          -114 159 -23 -65 vvcurveto
          -40 -43 -21 -109 11 vhcurveto
          -5 -97 rlineto
          207 -9 62 82 79 118 -163 31 63 vvcurveto
          endchar
        
                </CharString>
                <CharString name="grave">
                    556 228 hstem
          129 286 vstem
          415 604 -95 callsubr
          endchar
        
                </CharString>
                <CharString name="greater">
                    -24 637 hstem
          373 100 vstem
          140 -24 rmoveto
          333 273 rlineto
          93 vlineto
          -328 271 -62 -80 290 -232 rlineto
          -11 vlineto
          -293 -236 rlineto
          endchar
        
                </CharString>
                <CharString name="greaterequal">
                    7 94 hstem
          359 116 vstem
          359 370 rmoveto
          -8 vlineto
          -273 -132 36 -86 354 174 -2 85 -344 206 -44 -83 rlineto
          -17 -425 rmoveto
          -94 412 94 vlineto
          endchar
        
                </CharString>
                <CharString name="guillemotleft">
                    2 -21 536 96 callsubr
          -19 -18 callsubr
        
                </CharString>
                <CharString name="guillemotleft.cap">
                    511 96 callsubr
          40 -18 callsubr
        
                </CharString>
                <CharString name="guillemotright">
                    2 -21 536 96 callgsubr
          -19 -23 callgsubr
        
                </CharString>
                <CharString name="guillemotright.cap">
                    513 96 callgsubr
          40 -23 callgsubr
        
                </CharString>
                <CharString name="guilsinglleft">
                    2 -21 99 callsubr
          -19 29 callsubr
        
                </CharString>
                <CharString name="guilsinglleft.cap">
                    499 -20 99 callsubr
          40 29 callsubr
        
                </CharString>
                <CharString name="guilsinglright">
                    2 -21 100 callgsubr
          -19 28 callsubr
        
                </CharString>
                <CharString name="guilsinglright.cap">
                    500 -20 100 callgsubr
          40 28 callsubr
        
                </CharString>
                <CharString name="h">
                    46 callgsubr
          54 callsubr
          77 111 182 111 hintmask 11011100
          286 416 rmoveto
          52 32 -42 callsubr
          -63 -49 -26 -32 -38 vhcurveto
          258 vlineto
          hintmask 11101100
          70 callsubr
          386 vlineto
          hintmask 11011100
          102 callsubr
        
                </CharString>
                <CharString name="hbar">
                    21 -21 416 91 63 70 61 37 callsubr
          76 112 182 111 hintmask 11101110
          286 416 rmoveto
          52 32 -19 callsubr
          118 -56 50 -87 -63 -49 -26 -31 -38 vhcurveto
          120 123 70 -123 71 vlineto
          hintmask 11110110
          -112 -10 rlineto
          -61 -63 -71 63 -569 112 386 vlineto
          hintmask 11101110
          102 callsubr
        
                </CharString>
                <CharString name="hcoslug">
                    -100 75 4 9 -8 10 -10 14 -4 11 -10 10 -9 7 0 12 -11 11 -7 15 -15 26 -25 26 -15 8 -8 15 -12 12 0 14 -9 10 -10 19 -9 11 2 8 -7 32 71.5 22.5 hstemhm
          50 64 10 16 -3 8 5 40 -35 12 -1 12 14 10 -2 10 -10 42 -31 9 -1 7 3 12 -6 11 9 40 -29 13 -9 10 0 12 -4 11 -2 12 -5 16 18 11 10 8 hintmask 001000000000000010000010000010000010000010010000
          500 700 rmoveto
          -450 hlineto
          hintmask 100000000000000000001110000000100000001000000000
          -800 450 vlineto
          -300 396 rmoveto
          -17 11 -11 17 -16 vhcurveto
          9 13 5 12 12 vvcurveto
          18 -9 11 -13 -12 -8 -9 -13 vhcurveto
          49 -64 rmoveto
          12 -12 9 -12 9 -11 15 25 3 18 -17 17 -7 -7 -10 -9 -14 -9 rrcurveto
          -39 -93 rmoveto
          12 9 3 6 8 hvcurveto
          -21 27 -21 22 -14 13 rrcurveto
          -8 -8 -4 -11 -11 vvcurveto
          -23 17 -18 22 vhcurveto
          91 34 rmoveto
          -22 19 13 -9 15 hhcurveto
          15 9 9 13 8 hvcurveto
          5 -1 rlineto
          -44 -1 -27 -27 -32 hhcurveto
          -22 -17 8 26 -25 hvcurveto
          -23 -21 -25 -11 -32 hhcurveto
          -45 -36 30 40 31 21 24 40 13 hvcurveto
          -16 17 -7 13 22 vvcurveto
          32 31 32 51 46 25 -30 -26 -10 -2 -8 -5 -7 vhcurveto
          20 15 -8 -20 2 hvcurveto
          18 12 14 10 19 hhcurveto
          21 16 -15 -24 -23 -16 -17 -21 -14 -12 7 12 -6 hvcurveto
          -12 -7 -12 -10 -11 -15 rrcurveto
          hintmask 000000000000000000001000000000000100000000000000
          -72 -105 rmoveto
          -8 10 -5 -10 vlineto
          hintmask 000000000000000001000000000000000100000000000000
          -15 vlineto
          -3 1 -1 2 2 1 1 4 1 vhcurveto
          4 -1 rlineto
          -2 -7 -3 -3 -6 -6 -3 4 48 callsubr
          hintmask 000000000000000000100000000000010000000000000000
          15 -5 5 5 7 vlineto
          hintmask 000000000000000010000000100000000000000000000000
          -75 -21 29 callgsubr
          56 callgsubr
          22 hmoveto
          -8 callsubr
          hintmask 000000000000000100000000000000000000000100000000
          132 -1 rmoveto
          0 6 -2 4 -3 -5 -1 -5 48 callsubr
          0 -6 1 -4 5 3 2 4 48 callsubr
          56 callgsubr
          -120 -9 rmoveto
          4 hlineto
          hintmask 000000000000000000100010000000000000000000000000
          19 -4 5 vlineto
          hintmask 000000000000000000001000000010000000000000000000
          13 -6 hlineto
          4 2 3 3 5 hhcurveto
          7 2 -5 -6 hvcurveto
          hintmask 000000000000000010000000000000010000000000000000
          -14 5 -5 vlineto
          hintmask 000000000001000000000000000010000000000000000000
          -17 5 3 hlineto
          hintmask 000000000000000000100000000010000000000000000000
          13 vlineto
          3 -1 3 -3 -3 -3 -3 -5 vhcurveto
          -11 3 -5 vlineto
          56 callgsubr
          -16 hlineto
          -71 5 rmoveto
          6 hlineto
          hintmask 000000000000000000010010000000000000000000000000
          31 -6 5 vlineto
          hintmask 000000000000000000001000001000000000000000000000
          38 hlineto
          hintmask 000000000000000000100000001000000000000000000000
          -15 -5 vlineto
          8 -2 -1 2 -6 hhcurveto
          -8 hlineto
          hintmask 000000000000000000010001000000000000000000000000
          -14 3 vlineto
          4 0 1 5 1 hvcurveto
          5 hlineto
          hintmask 000000000000000010000000100000000000000000000000
          -17 -5 vlineto
          5 -1 0 1 -4 hhcurveto
          -3 hlineto
          hintmask 000000000000000010000001000000000000000000000000
          -12 7 -5 vlineto
          56 callgsubr
          -23 hlineto
          hintmask 000000000000000001000000000000000100000000000000
          133 10 rmoveto
          5 hlineto
          -4 3 3 -3 3 hhcurveto
          3 1 2 1 hvcurveto
          hintmask 000000000000000000010000000000000100000000000000
          7 -18 -4 12 vvcurveto
          4 4 5 7 3 3 -1 -3 2 vhcurveto
          1 4 rlineto
          5 -10 -5 hlineto
          4 -3 -2 1 -3 hhcurveto
          -2 -2 -1 -2 hvcurveto
          hintmask 000000000001000000000000000000000000100000000000
          -5 18 2 -11 vvcurveto
          -5 -3 -4 -7 -5 -3 2 2 -2 vhcurveto
          -1 -3 rlineto
          -5 hlineto
          hintmask 000000000000000000010000000000000000100000000000
          38 38 rmoveto
          -5 5 hlineto
          hintmask 000000000000000000001000000000000000000100000000
          14 hlineto
          hintmask 000000000000000000010000000000000000000100000000
          -20 vlineto
          4 1 4 3 4 hhcurveto
          hintmask 000000000010000000000000000000000000000010000000
          7 0 5 -6 0 -9 0 -7 -3 -9 0 flex1
          -6 -3 2 4 -2 hvcurveto
          -3 -6 rlineto
          -4 hlineto
          hintmask 100000000000000000001000000000000000000010000000
          39 -6 rmoveto
          3 3 2 4 hvcurveto
          -3 7 -9 18 0 vvcurveto
          -3 5 18 -5 -4 hlineto
          7 -15 6 15 rlineto
          -4 5 13 -5 -4 hlineto
          hintmask 000000000100000000000000000000000000000010000000
          -10 -24 rlineto
          -7 -3 -4 -5 -6 hhcurveto
          -6 -3 3 4 3 2 2 3 hvcurveto
          hintmask 100000000000000000001000000000000000000010000000
          5 1 -5 -2 -2 hvcurveto
          hintmask 000000001000000000000000000000000000000000000000
          45 -24 rmoveto
          -6 -4 vlineto
          -2 -4 -2 -3 -3 -3 rrcurveto
          2 -2 2 -2 1 1 1 1 1 hflex1
          3 -1 rlineto
          -5 -1 -2 -4 -6 hhcurveto
          hintmask 100000000000000000000000000000000000000001000000
          -4 0 -2 2 -3 3 -3 -3 -4 -2 -6 flex1
          -7 -5 4 6 6 4 3 6 2 hvcurveto
          -3 3 -2 3 4 vvcurveto
          hintmask 000000000000100000000000000000000000000000100000
          5 4 6 9 6 4 -4 -5 -5 -3 -2 -5 -3 vhcurveto
          2 -2 4 -5 3 -3 2 2 2 3 1 2 rrcurveto
          -5 6 hlineto
          hintmask 000000000010000000000000000000000010000000000000
          -114 4 rmoveto
          11 4 hlineto
          -3 -2 2 2 2 1 1 0 hvcurveto
          0 -1 1 -2 -2 -2 -2 -6 vhcurveto
          hintmask 100000000000000000000000000000000000000000010000
          132 -13 rmoveto
          hintmask 000010000000000000000000000000000000000000010000
          15 9 8 11 vhcurveto
          hintmask 000010000000000000000000000000000000000000000000
          5 4 -2 -3 3 hvcurveto
          4 6 vlineto
          -16 -6 vlineto
          hintmask 000000010000000000000000000000000000000000000000
          9 -3 -2 3 -6 hhcurveto
          -6 -4 -5 -12 hvcurveto
          hintmask 010000000000000000000000000000000000000000000000
          -11 4 -6 8 vhcurveto
          hintmask 000001000000000000000000000000000000000000000000
          6 3 6 6 1 hvcurveto
          6 hlineto
          hintmask 100000000000000000000000000000000000000000000000
          -10 -1 -6 -7 -11 hhcurveto
          hintmask 100000000000000000000000000000000000000000010000
          -13 -8 7 14 hvcurveto
          hintmask 000000010000000000000000000000000000000000100000
          -29 4 rmoveto
          2 1 2 3 3 vvcurveto
          3 -2 2 -3 -2 -2 -1 -3 -2 2 -3 3 -3 vhcurveto
          hintmask 001000000000000000000000000000000000010000000000
          -68 -11 rmoveto
          77 callsubr
          hintmask 100000000000000000000000000000000000010000000000
          -6 -1 -4 -5 -8 hhcurveto
          -10 -6 6 9 hvcurveto
          hintmask 000000000001000000000000000000000000010000000000
          10 7 6 8 11 4 -7 -10 -1 vhcurveto
          hintmask 001000000000000000000000000001000000000000000000
          -89 hmoveto
          77 callsubr
          78 callsubr
          -6 -1 -4 -5 -8 hhcurveto
          hintmask 100000000000000000000000010000000000000000000000
          -10 -6 6 9 hvcurveto
          hintmask 000000000001000000000000010000000000000000000000
          10 7 6 8 vhcurveto
          hintmask 000000000001000000000000000000001000000000000000
          11 4 -7 -10 -1 hvcurveto
          hintmask 001000000000000000000010000001000000000000000000
          -63 2 29 callgsubr
          252 hmoveto
          hintmask 001000000000000000000000000000000000000000000000
          41 callgsubr
          hintmask 001000000000000000000010000001000000000000000000
          42 callsubr
          hintmask 000000100000000000000000000001000000010000000000
          -138 2 rmoveto
          74 callsubr
          -70 hmoveto
          74 callsubr
          hintmask 001000000000000000000000000100000000000000000000
          -22 -2 rmoveto
          -8 callsubr
          hintmask 001000000000000000000000000000000000000000000000
          252 hmoveto
          -8 callsubr
          78 callsubr
          -208 -10 rmoveto
          4 hlineto
          hintmask 000000100000000000000000000000001000000000000000
          19 -5 5 5 1 vlineto
          hintmask 000000000000001000000000000000001000000000000000
          10 7 4 6 4 2 -1 -1 2 vhcurveto
          8 2 rlineto
          hintmask 001000000000000000000000000000000000100000000000
          -39 4 -5 vlineto
          hintmask 100000000000000000000000000000000010000000000000
          -17 5 4 hlineto
          hintmask 000000100000000000000000000000000010000000000000
          19 -11 vlineto
          hintmask 001000000000000000000000000000000010000000000000
          -19 4 -5 vlineto
          78 callsubr
          -17 hlineto
          hintmask 100000000000000000000000000000000001000000000000
          69 5 rmoveto
          4 hlineto
          hintmask 000000100000000000000000000000000001000000000000
          19 -4 5 vlineto
          hintmask 000000000001000000000000000000000000000001000000
          13 -6 hlineto
          5 2 3 2 4 hhcurveto
          4 2 -2 -4 -3 -2 -2 -3 -2 -3 1 3 hvcurveto
          1 vlineto
          -1 -3 -3 -4 -1 hvcurveto
          hintmask 001000000000000000000000000000000000000001000000
          -12 6 -5 vlineto
          hintmask 100000000000000000000000000000000001000000000000
          -19 hlineto
          hintmask 100000000000000000000010000000000000000000000000
          -183 5 rmoveto
          6 hlineto
          hintmask 000000010000000000000010000000000000000000000000
          31 -6 5 vlineto
          hintmask 000000000000010000000001000000000000000000000000
          21 -5 -5 hlineto
          hintmask 000000010000000000000001000000000000000000000000
          -12 16 12 -5 5 vlineto
          hintmask 000000000000010000000000000100000000000000000000
          21 -5 -6 hlineto
          hintmask 001000000000000000000000000100000000000000000000
          -31 6 -5 vlineto
          hintmask 100000000000000000000001000000000000000000000000
          -21 5 5 hlineto
          hintmask 000100000000000000000001000000000000000000000000
          14 -16 vlineto
          hintmask 001000000000000000000001000000000000000000000000
          -14 5 -5 vlineto
          hintmask 100000000000000000000010000000000000000000000000
          -21 hlineto
          hintmask 001000000000000000000000000000000000000000100000
          234 7 rmoveto
          -2 2 -4 5 -4 4 rrcurveto
          -2 -2 -1 -2 -3 vvcurveto
          -4 3 -3 4 2 2 1 2 2 vhcurveto
          hintmask 100000000000000000000000000000000000000000000000
          111 -2 rmoveto
          0 -3 -2 -3 -4 -4 -2 3 48 callsubr
          0 3 2 3 4 4 2 -3 48 callsubr
          endchar
        
                </CharString>
                <CharString name="hungarumlaut">
                    563 235 hstem
          121 422 vstem
          121 597 -86 callsubr
          endchar
        
                </CharString>
                <CharString name="hyphen">
                    250 95 hstem
          118 320 vstem
          438 345 rmoveto
          -320 -95 312 hlineto
          endchar
        
                </CharString>
                <CharString name="i">
                    3 callsubr
          61 callsubr
          238.5 93 callgsubr
          hintmask 11110000
          60 callgsubr
          282 13 callsubr
        
                </CharString>
                <CharString name="iacute">
                    3 callsubr
          203 -20 36 callsubr
          179 -53 callsubr
          338 -608 rmoveto
          -70 callsubr
        
                </CharString>
                <CharString name="ibreve">
                    3 callsubr
          66 89 36 callsubr
          299 564 -103 callgsubr
          218 -564 rmoveto
          -70 callsubr
        
                </CharString>
                <CharString name="icircumflex">
                    3 callsubr
          128 -20 36 callsubr
          416 561 -87 callsubr
          228 -663 rmoveto
          -70 callsubr
        
                </CharString>
                <CharString name="idieresis">
                    3 callsubr
          61 callsubr
          131 -15 callgsubr
          -3.5 112 1 -9 callsubr
          hintmask 11110100
          465 573 -103 callsubr
          387 13 callsubr
        
                </CharString>
                <CharString name="igrave">
                    3 callsubr
          36 callsubr
          410 604 -95 callsubr
          138 -556 rmoveto
          -70 callsubr
        
                </CharString>
                <CharString name="imacron">
                    3 callsubr
          98 95 36 callsubr
          470 691 -24 callsubr
          47 -596 rmoveto
          -70 callsubr
        
                </CharString>
                <CharString name="iogonek">
                    -224 87 137 84 331 83 61 callsubr
          160 105 -26.5 93 callgsubr
          hintmask 11110100
          60 callgsubr
          139 -710 rmoveto
          hintmask 11111000
          -80 7 -29 16 23 vvcurveto
          22 19 28 63 41 vhcurveto
          170 hlineto
          48 callgsubr
          hintmask 01110010
          -68 callgsubr
          vlineto
          hintmask 11111000
          -173 -84 181 hlineto
          -62 -44 -27 -39 -38 vvcurveto
          -54 89 callgsubr
          endchar
        
                </CharString>
                <CharString name="j">
                    -175 104 485 84 61 callsubr
          277.5 116 -109.5 112 hintmask 11110000
          391 573 rmoveto
          5 -40 callsubr
          -116 hlineto
          -5 -39 callsubr
          hintmask 11101000
          121 -511 rmoveto
          436 -307 vlineto
          -9 -79 204 -10 rlineto
          -371 vlineto
          -87 -23 -16 -205 -6 vhcurveto
          -4 -104 rlineto
          259 6 85 83 148 vvcurveto
          endchar
        
                </CharString>
                <CharString name="k">
                    11 callgsubr
          hintmask 1001010110000000
          406 -7 rmoveto
          hintmask 0011100110000000
          67 callsubr
          hintmask 0011010110000000
          61 callgsubr
          hintmask 0101011010000000
          68 callgsubr
          endchar
        
                </CharString>
                <CharString name="kcommaaccent">
                    11 callgsubr
          40 118 hintmask 1001010111000000
          406 -7 rmoveto
          hintmask 0011100111000000
          67 callsubr
          hintmask 0011010111000000
          61 callgsubr
          hintmask 0101011011000000
          68 callgsubr
          -38 -488 -100 callsubr
        
                </CharString>
                <CharString name="l">
                    0 84 532 83 -79 -20 hstemhm
          223 112 7 callgsubr
          endchar
        
                </CharString>
                <CharString name="lacute">
                    67 callgsubr
          161 810 -107 callgsubr
          319 -810 rmoveto
          20 callsubr
          endchar
        
                </CharString>
                <CharString name="lcaron">
                    -7 callsubr
          108 107 hintmask 11011000
          425 566 -47 callsubr
          55 -566 rmoveto
          4 callsubr
          hintmask 10111000
          -10 -79 rlineto
          hintmask 11011000
          4 callgsubr
          endchar
        
                </CharString>
                <CharString name="lcommaaccent">
                    -7 callsubr
          -108 118 7 callgsubr
          hintmask 11001000
          139 -65 callsubr
        
                </CharString>
                <CharString name="ldot">
                    0 84 176 128 228 10 callgsubr
          164 109.5 hintmask 11101100
          480 hmoveto
          4 callsubr
          hintmask 11011100
          -10 -79 rlineto
          hintmask 11101100
          4 callgsubr
          536 260 rmoveto
          7 128 rlineto
          -109 hlineto
          -8 -128 rlineto
          endchar
        
                </CharString>
                <CharString name="less">
                    -24 638 hstem
          80 100 vstem
          411 614 rmoveto
          -331 -272 rlineto
          -93 vlineto
          329 -273 63 80 -292 234 rlineto
          11 vlineto
          291 234 rlineto
          endchar
        
                </CharString>
                <CharString name="lessequal">
                    7 94 hstem
          76 38 callgsubr
          191 370 rmoveto
          273 156 -44 83 -343 -206 -2 -85 354 -174 36 86 -274 132 rlineto
          290 -261 rmoveto
          -412 -94 412 hlineto
          endchar
        
                </CharString>
                <CharString name="lslash">
                    67 callgsubr
          480 hmoveto
          48 callgsubr
          -154 271 hlineto
          117 59 -18 72 -99 -50 rlineto
          263 -251 vlineto
          hintmask 10110000
          -10 -79 105 callgsubr
          149 -8 rlineto
          -232 vlineto
          -124 -63 18 -73 106 54 rlineto
          -214 -154 -84 vlineto
          endchar
        
                </CharString>
                <CharString name="m">
                    101 callgsubr
          47 103 89 79 87 103 hintmask 11011100
          203 416 rmoveto
          25 11 -15 -42 hvcurveto
          -359 79 393 vlineto
          15 15 16 8 18 hhcurveto
          26 12 -15 -43 hvcurveto
          -358 103 397 vlineto
          74 -28 40 -57 -44 -35 -24 -30 -27 vhcurveto
          34 -10 -23 20 -39 hhcurveto
          -41 -35 -24 -30 -27 hvcurveto
          hintmask 10111100
          -4 43 -95 -6 rlineto
          4 -113 0 -157 -224 vvcurveto
          103 hlineto
          hintmask 11011100
          164 -1 133 -2 93 vhcurveto
          17 18 19 9 19 hhcurveto
          endchar
        
                </CharString>
                <CharString name="macron">
                    596 95 hstem
          102 346 vstem
          448 691 -24 callsubr
          endchar
        
                </CharString>
                <CharString name="minus">
                    251 93 79 callsubr
          344 rmoveto
          -406 -93 406 hlineto
          endchar
        
                </CharString>
                <CharString name="mu">
                    84 callgsubr
          152 93 -62 -21 26 -21 23 -21 489 46 callsubr
          -9 callgsubr
          hintmask 0100010011100000
          179 -164 rmoveto
          -3 169 rlineto
          hintmask 0110000011100000
          -12 17 22 -5 26 hhcurveto
          57 43 31 36 33 hvcurveto
          hintmask 0101000011100000
          6 -57 rlineto
          hintmask 0100100101100000
          101 -70 callgsubr
          hintmask 0110000011100000
          -161 1 -130 2 -92 vhcurveto
          -21 -30 -33 -13 -38 hhcurveto
          -51 -31 25 78 hvcurveto
          317 vlineto
          hintmask 1000011001100000
          -111 -7 rlineto
          -668 vlineto
          endchar
        
                </CharString>
                <CharString name="multiply">
                    507 -20 23 -20 hstemhm
          64 422 hintmask 01100000
          416 84 rmoveto
          70 69 -143 146 rlineto
          hintmask 10100000
          139 141 -67 67 -139 -141 rlineto
          hintmask 01100000
          -141 144 -71 -69 143 -145 -139 -141 68 -67 138 -40 callsubr
          endchar
        
                </CharString>
                <CharString name="n">
                    21 -21 416 95 -11 -20 44 callgsubr
          hintmask 11011000
          286 416 -59 callgsubr
          hintmask 10111000
          -35 callgsubr
          hintmask 11011000
          -21 callsubr
          endchar
        
                </CharString>
                <CharString name="nacute">
                    35 callgsubr
          234 -20 44 callgsubr
          hintmask 10111100
          157 621 -107 callgsubr
          hintmask 11011100
          129 -205 -34 callsubr
        
                </CharString>
                <CharString name="naira">
                    21 -21 154 72 140 88 -72 73 165 -20 hstemhm
          91 104 callsubr
          205 85.5 hintmask 11011110
          179 424 rmoveto
          6 hlineto
          91 -198 rlineto
          -96 hlineto
          200 -38 rmoveto
          -88 194 rlineto
          92 hlineto
          1 -194 rlineto
          -5 -188 rmoveto
          90 154 62 88 -62 hlineto
          hintmask 11101110
          124 62 88 -62 166 -87 vlineto
          hintmask 11011110
          1 -165 rlineto
          -125 hlineto
          -75 165 rlineto
          -93 hlineto
          hintmask 11101110
          -166 -64 -88 64 -124 -64 -88 64 -154 90 vlineto
          -1 154 rlineto
          129 hlineto
          endchar
        
                </CharString>
                <CharString name="ncaron">
                    35 callgsubr
          227 -20 44 callgsubr
          hintmask 10111100
          285 567 -99 callsubr
          hintmask 11011100
          8 -151 -34 callsubr
        
                </CharString>
                <CharString name="ncommaaccent">
                    101 callgsubr
          77 112 49 118 14 111 hintmask 11010100
          286 416 -59 callgsubr
          hintmask 10110100
          -35 callgsubr
          hintmask 11010100
          -21 callsubr
          hintmask 10111100
          -67 -682 -100 callsubr
        
                </CharString>
                <CharString name="nine">
                    -1 -21 264 77 225 88 hstem
          59 103 223 104 vstem
          172 -22 rmoveto
          219 99 98 139 173 vvcurveto
          159 -86 84 -126 -117 -101 -81 -132 -167 175 -62 141 101 vhcurveto
          -23 -88 -67 -68 -159 -64 rrcurveto
          36 359 rmoveto
          74 45 40 59 68 51 -51 -115 vhcurveto
          -7 0 -6 -7 vvcurveto
          -118 -73 -105 33 112 vvcurveto
          endchar
        
                </CharString>
                <CharString name="nine.den">
                    -60 58 -19 19 126 69 hstemhm
          111 83 159 85 hintmask 10111000
          191 -228 -36 callsubr
          vhcurveto
          hintmask 01111000
          -31 callgsubr
          hintmask 10111000
          -51 callgsubr
        
                </CharString>
                <CharString name="nine.inf">
                    -147 -21 168 -3 callsubr
          -168 -85 callsubr
        
                </CharString>
                <CharString name="nine.num">
                    575 -3 callsubr
          407 -85 callsubr
        
                </CharString>
                <CharString name="nine.small">
                    3 -21 168 -3 callsubr
          -18 -85 callsubr
        
                </CharString>
                <CharString name="nine.sup">
                    475 -3 callsubr
          307 -85 callsubr
        
                </CharString>
                <CharString name="notequal">
                    22 -21 143 94 126 94 79 callsubr
          144 rmoveto
          94 -178 vlineto
          46 126 rlineto
          132 94 -98 hlineto
          42 117 -84 26 -52 -143 rlineto
          -214 -94 180 hlineto
          -46 -126 rlineto
          -134 -94 100 hlineto
          -43 -118 85 -25 52 143 rlineto
          endchar
        
                </CharString>
                <CharString name="ntilde">
                    35 callgsubr
          101 89 -54 -20 71 90 44 callgsubr
          hintmask 10110011
          352 581 -56 callsubr
          hintmask 10101111
          -71 callsubr
          hintmask 10110011
          45 callsubr
          hintmask 11001111
          -66 -165 -59 callgsubr
          hintmask 10101111
          -35 callgsubr
          hintmask 11001111
          -21 callsubr
          endchar
        
                </CharString>
                <CharString name="numbersign">
                    21 -21 161 93 114 93 159 -20 hstem
          146 76 105 76 vstem
          321 254 rmoveto
          -105 hlineto
          12 114 rlineto
          105 hlineto
          -37 -368 rmoveto
          76 hlineto
          16 161 rlineto
          94 hlineto
          10 93 rlineto
          -95 hlineto
          12 114 rlineto
          93 hlineto
          10 93 rlineto
          -94 83 callgsubr
          -105 83 callgsubr
          -92 hlineto
          -10 -93 rlineto
          93 hlineto
          -12 -114 rlineto
          -91 hlineto
          -11 -93 rlineto
          93 hlineto
          -16 -161 rlineto
          76 hlineto
          16 161 rlineto
          105 hlineto
          endchar
        
                </CharString>
                <CharString name="numero">
                    0 164 -77 77 456 -20 26 -20 hstemhm
          27 86 80.5 85.5 26 230 -222 213 hintmask 10011110
          411 204 rmoveto
          73 51 84 140 133 -40 65 -65 -73 -52 -84 -140 -133 41 -65 65 hvcurveto
          hintmask 10101100
          -206 -204 rmoveto
          74 620 -89 hlineto
          7 -337 rlineto
          -2 hlineto
          -88 337 rlineto
          -80 -620 90 hlineto
          -8 373 rlineto
          3 hlineto
          hintmask 01011101
          414 -286 rmoveto
          hintmask 10011101
          77 -213 vlineto
          hintmask 01011101
          -77 vlineto
          endchar
        
                </CharString>
                <CharString name="o">
                    27 callsubr
          0 callsubr
          259 -15 -104 callgsubr
        
                </CharString>
                <CharString name="oacute">
                    27 callsubr
          194 -20 0 callsubr
          157 614 -107 callgsubr
          102 -629 -104 callgsubr
        
                </CharString>
                <CharString name="obreve">
                    27 callsubr
          57 89 0 callsubr
          276 570 -103 callgsubr
          -17 -585 -104 callgsubr
        
                </CharString>
                <CharString name="ocircumflex">
                    27 callsubr
          106 90 callgsubr
          1 callsubr
          hintmask 11011100
          394 567 -73 callsubr
          hintmask 11101100
          13 callgsubr
          rlineto
          hintmask 11011100
          -30 callgsubr
          -8 -684 -104 callgsubr
        
                </CharString>
                <CharString name="odieresis">
                    27 callsubr
          66 28 callgsubr
          48 113 -52 -81 callgsubr
          -54.5 112 hintmask 11101100
          443 579 17 callsubr
          151 -594 -104 callgsubr
        
                </CharString>
                <CharString name="oe">
                    -8 89 -88 92 139.5 84 callsubr
          128 90 hstemhm
          24 110 106 94 91 98 hintmask 10111110
          192 81 rmoveto
          -40 -18 58 120 112 19 45 32 35 20 -61 -115 -110 -17 -49 -31 hvcurveto
          188 334 rmoveto
          33 11 -43 -80 1 hvcurveto
          -24 -1 -37 -2 -31 -1 rrcurveto
          93 3 16 34 28 hhcurveto
          hintmask 01111110
          129 -422 rmoveto
          8 92 -150 1 -30 33 -3 103 rlinecurve
          189 5 rlineto
          176 11 -43 103 -94 hhcurveto
          -43 -36 -25 -43 -26 hvcurveto
          45 -22 -32 23 -44 hhcurveto
          -102 -68 -103 -167 hvcurveto
          hintmask 10111110
          -164 58 -80 89 49 39 29 51 26 vhcurveto
          hintmask 01111110
          36 -53 67 -28 121 2 rrcurveto
          endchar
        
                </CharString>
                <CharString name="ogonek">
                    -224 87 158 -21 hstem
          155 106 vstem
          353 43 rmoveto
          -141 -63 -57 -52 -51 vvcurveto
          -52 57 58 callsubr
          10 87 rlineto
          78 callgsubr
          endchar
        
                </CharString>
                <CharString name="ograve">
                    27 callsubr
          187 -20 0 callsubr
          388 610 -95 callsubr
          -98 -577 -104 callgsubr
        
                </CharString>
                <CharString name="ohungarumlaut">
                    27 callsubr
          0 callsubr
          115 603 -86 callsubr
          -66 -616 -104 callgsubr
        
                </CharString>
                <CharString name="omacron">
                    27 callsubr
          89 95 0 callsubr
          448 697 -24 callsubr
          -189 -617 -104 callgsubr
        
                </CharString>
                <CharString name="one">
                    0 93 370 177 -9 -20 29 -20 hstemhm
          248 107 hintmask 10011000
          496 hmoveto
          9 93 rlineto
          -150 547 hlineto
          hintmask 10101000
          -107 -9 rlineto
          hintmask 11001000
          -73 vlineto
          -154 -16 2 -81 152 4 rlineto
          -372 -168 -93 vlineto
          endchar
        
                </CharString>
                <CharString name="one.den">
                    -210 -2 callsubr
          -210 -33 callsubr
        
                </CharString>
                <CharString name="one.inf">
                    -150 -2 callsubr
          -150 -33 callsubr
        
                </CharString>
                <CharString name="one.num">
                    425 -2 callsubr
          425 -33 callsubr
        
                </CharString>
                <CharString name="one.small">
                    0 -2 callsubr
          hmoveto
          -99 callgsubr
          endchar
        
                </CharString>
                <CharString name="one.sup">
                    325 -2 callsubr
          325 -33 callsubr
        
                </CharString>
                <CharString name="oneeighth">
                    3 callgsubr
          84 -25 callsubr
          6 callgsubr
          40 86 10 84 -82 89 hintmask 1011111101000000
          -92 callgsubr
          207 -561 rmoveto
          hintmask 1011111101010000
          -40 callgsubr
          hintmask 1011111011100000
          -63 callgsubr
          vhcurveto
          hintmask 1101111011000000
          5 callgsubr
          hintmask 1011111101000000
          -16 callgsubr
          hintmask 1011111011100000
          -89 callsubr
          hintmask 1011111101010000
          -91 callsubr
        
                </CharString>
                <CharString name="onefifth">
                    -221 79 252 75 84 24 callgsubr
          -31 callsubr
          24 86 12 82 hintmask 11111010
          -92 callgsubr
          hintmask 11111111
          -83 callsubr
        
                </CharString>
                <CharString name="onehalf">
                    -210 62 callsubr
          75 24 callgsubr
          249 86 -5 89 hintmask 11111100
          -92 callgsubr
          371 -551 rmoveto
          62 callgsubr
          hintmask 11111010
          -95 callgsubr
          endchar
        
                </CharString>
                <CharString name="onequarter">
                    -135.5 71 333.5 24 callgsubr
          122 74 53 86 -15 81 hintmask 11110100
          -92 callgsubr
          hintmask 11111010
          388 -477 -90 callsubr
        
                </CharString>
                <CharString name="onesixth">
                    -220 70 125 58 236 24 callgsubr
          112 84 53 86 20 83 hintmask 11111110
          -92 callgsubr
          214 -561 rmoveto
          hintmask 11111111
          -81 callsubr
          hintmask 11111110
          -107 66 -57 96 vhcurveto
          hintmask 11111111
          -72 callsubr
        
                </CharString>
                <CharString name="onethird">
                    -221 78 254 74 84 24 callgsubr
          249 86 11 85 hintmask 11111100
          -92 callgsubr
          76 -562 rmoveto
          hintmask 11111110
          -102 callsubr
        
                </CharString>
                <CharString name="ordfeminine">
                    107 74 64 68 100 57 77 79 hstem
          107 92 140 90 vstem
          259 313 rmoveto
          -37 -23 13 34 39 29 22 111 -11 hvcurveto
          -28 1 -23 1 -20 vhcurveto
          -15 -25 -30 -11 -27 hhcurveto
          93 -61 rmoveto
          84 4 rlineto
          -3 51 -4 57 75 vvcurveto
          138 -59 46 -229 3 vhcurveto
          -8 -79 153 -4 44 -13 8 -60 rlinecurve
          -158 4 -73 -59 -74 vvcurveto
          -60 52 -36 71 50 39 20 23 27 vhcurveto
          3 -16 3 -17 -3 vvcurveto
          -249 -71 rmoveto
          -74 343 74 vlineto
          endchar
        
                </CharString>
                <CharString name="ordmasculine">
                    107 74 64 73 236 74 hstem
          91 91 185 91 vstem
          91 428 rmoveto
          -117 70 -66 100 109 88 80 120 115 -71 68 -100 -106 -90 -81 -119 vhcurveto
          186 -110 rmoveto
          -59 -36 39 86 73 31 38 59 61 34 -39 -85 -74 -32 -38 -58 hvcurveto
          170 -211 rmoveto
          74 -344 -74 vlineto
          endchar
        
                </CharString>
                <CharString name="oslash">
                    91 callsubr
          hstemhm
          48 111 234 109 hintmask 10101100
          159 258 -37 callgsubr
          hintmask 10011100
          92 callsubr
          hintmask 01101100
          19 callgsubr
          hintmask 10101100
          76 callgsubr
        
                </CharString>
                <CharString name="oslashacute">
                    91 callsubr
          233 -20 hstemhm
          48 111 234 109 hintmask 10101110
          158 614 -107 callgsubr
          1 -356 -37 callgsubr
          hintmask 10011110
          92 callsubr
          hintmask 01101110
          19 callgsubr
          hintmask 10101110
          76 callgsubr
        
                </CharString>
                <CharString name="otilde">
                    27 callsubr
          61 89 -3 90 hstemhm
          1 callsubr
          hintmask 11101100
          352 574 -57 callgsubr
          -93 -589 -104 callgsubr
        
                </CharString>
                <CharString name="p">
                    84 callgsubr
          151 96 337 91 -11 -20 hstemhm
          80 111 200 110 hintmask 01110110
          256 102 callgsubr
          -1 130 -2 92 -1 71 rrcurveto
          20 27 31 12 30 40 callsubr
          9 8 0 9 hhcurveto
          156 128 98 callgsubr
          -58 -46 -28 -34 -35 hvcurveto
          hintmask 10101110
          -5 51 -102 -6 rlineto
          5 -99 1 -141 -257 vvcurveto
          -171 vlineto
          endchar
        
                </CharString>
                <CharString name="paragraph">
                    90 89 349 103 hstemhm
          42 102 82 90 -71 69 75 92 hintmask 11101100
          389 179 rmoveto
          -27 -25 3 5 -23 hvcurveto
          341 vlineto
          22 2 25 0 28 -2 rrcurveto
          -245 -169 rmoveto
          67 29 58 72 28 vhcurveto
          -303 vlineto
          -66 32 -35 53 65 vvcurveto
          hintmask 11110100
          172 -465 rmoveto
          201 vlineto
          -3 23 24 -2 26 hhcurveto
          -183 vlineto
          92 10 rlineto
          714 vlineto
          -289 1 -150 -116 -173 vvcurveto
          -108 65 -83 119 -38 vhcurveto
          -230 vlineto
          endchar
        
                </CharString>
                <CharString name="parenleft">
                    -208 938 hstem
          102 110 vstem
          399 730 -14 callgsubr
        
                </CharString>
                <CharString name="parenleft.cap">
                    709 -20 hstem
          102 110 vstem
          399 776 -14 callgsubr
        
                </CharString>
                <CharString name="parenright">
                    -208 938 97 callgsubr
          -208 -14 callsubr
        
                </CharString>
                <CharString name="parenright.cap">
                    707 -20 97 callgsubr
          -162 -14 callsubr
        
                </CharString>
                <CharString name="percent">
                    6 -21 23 -21 645 -20 22 -20 hstemhm
          40 193 85 192 hintmask 01011100
          40 495 rmoveto
          -81 38 -48 53 57 45 53 85 82 -38 48 -52 -58 -45 -54 -85 vhcurveto
          hintmask 10101100
          74 -510 rmoveto
          393 604 -70 43 -393 -602 rlineto
          hintmask 01011100
          466 95 rmoveto
          82 -38 48 -52 -57 -45 -54 -85 -81 38 -48 52 58 44 53 85 vhcurveto
          endchar
        
                </CharString>
                <CharString name="period">
                    0 140 hstem
          192.5 153 vstem
          342 hmoveto
          7 -40 callsubr
          -153 hlineto
          -7 -39 callsubr
          endchar
        
                </CharString>
                <CharString name="periodcentered">
                    232 141 hstem
          199 153 vstem
          351 232 rmoveto
          2 141 rlineto
          -153 hlineto
          -2 -141 rlineto
          endchar
        
                </CharString>
                <CharString name="peso">
                    21 -21 350 89 -82 79 101 93 -11 -20 hstemhm
          93 102 hintmask 10101100
          195 436 rmoveto
          hintmask 10110100
          101 vlineto
          103 12 61 -38 15 -75 rrcurveto
          -179 -172 rmoveto
          93 180 vlineto
          -15 -79 -63 -25 -102 11 rrcurveto
          hintmask 11001100
          341 86 rmoveto
          89 -58 vlineto
          -12 148 -130 71 -243 -39 rrcurveto
          -180 -67 -89 67 -350 102 168 vlineto
          143 15 104 55 29 112 rrcurveto
          endchar
        
                </CharString>
                <CharString name="plus">
                    251 93 hstem
          226 99 vstem
          493 251 rmoveto
          93 -168 178 -99 -178 -169 -93 169 -178 99 178 vlineto
          endchar
        
                </CharString>
                <CharString name="plusminus">
                    49 93 153 93 hstem
          226 99 vstem
          485 49 rmoveto
          93 -160 153 161 93 -161 170 -99 -170 -162 -93 162 -153 -161 -93 vlineto
          endchar
        
                </CharString>
                <CharString name="published">
                    7 58 86 312 92 58 hstem
          36 63 95 68 189 97 callsubr
          91 -111 138 63 callsubr
          -137 -98 87 callsubr
          66 90 104 87 callgsubr
          -101 -68 88 155 vhcurveto
          163 -157 rmoveto
          81 vlineto
          71 14 50 45 65 vvcurveto
          82 -62 38 -127 -17 vhcurveto
          -308 vlineto
          endchar
        
                </CharString>
                <CharString name="q">
                    -152 -21 30 -21 150 92 337 96 hstemhm
          49 110 202 111 hintmask 10111100
          361 -173 rmoveto
          hintmask 01111100
          111 9 rlineto
          648 vlineto
          18 -46 -45 9 -54 hhcurveto
          -146 -132 -108 -181 -145 76 -91 106 54 43 24 30 33 hvcurveto
          -85 38 rmoveto
          -70 -47 56 115 111 52 55 74 26 24 -5 -9 26 hvcurveto
          -293 vlineto
          -18 -25 -29 -12 -31 hhcurveto
          endchar
        
                </CharString>
                <CharString name="question">
                    0 130 445 104 hstem
          163.5 141 84 callsubr
          119 vstem
          83 575 rmoveto
          237 -17 48 -31 -39 vvcurveto
          -60 -160 -46 -7 -145 vhcurveto
          79 -2 rlineto
          13 128 194 42 112 vvcurveto
          81 -87 66 -306 15 vhcurveto
          209 -679 rmoveto
          3 130 rlineto
          -141 hlineto
          -3 -130 rlineto
          endchar
        
                </CharString>
                <CharString name="questiondown">
                    490 130 hstem
          63 120 63 140 vstem
          248 620 rmoveto
          -4 -130 rlineto
          140 hlineto
          4 130 rlineto
          80 -575 rmoveto
          -237 17 -48 31 39 vvcurveto
          60 160 46 7 145 vhcurveto
          -79 2 rlineto
          -14 -128 -194 -42 -112 vvcurveto
          -81 87 -66 306 -15 vhcurveto
          endchar
        
                </CharString>
                <CharString name="quotedbl">
                    373 301 hstem
          114.5 125.5 97.5 125 vstem
          417 373 rmoveto
          47 257 -3 44 rlineto
          -126 hlineto
          5 -301 rlineto
          -146 hmoveto
          47 257 -2 44 rlineto
          -127 hlineto
          5 -301 rlineto
          endchar
        
                </CharString>
                <CharString name="quotedblbase">
                    -152 -21 22 -21 hstemhm
          123 119 103 121 hintmask 10110000
          85 -155 rmoveto
          55 -18 85 83 40 131 -36 108 rlinecurve
          -138 -7 44 -103 -2 -119 -48 -75 rlinecurve
          218 hmoveto
          hintmask 01110000
          54 -17 88 80 43 99 callgsubr
          -6 rlineto
          hintmask 10110000
          40 -102 -4 -121 -51 -75 rrcurveto
          endchar
        
                </CharString>
                <CharString name="quotedblleft">
                    369 322 hstem
          89 121 102 120 vstem
          469 674 rmoveto
          -55 17 -84 -83 -41 -130 37 -109 rlinecurve
          137 8 -44 103 2 119 48 75 rlinecurve
          -218 hmoveto
          -55 17 -86 -81 -43 -130 34 -111 rlinecurve
          136 7 -41 102 5 120 50 76 rlinecurve
          endchar
        
                </CharString>
                <CharString name="quotedblright">
                    354 322 hstem
          127 119 104 121 vstem
          89 371 rmoveto
          55 -17 84 83 42 130 -38 109 rlinecurve
          -136 -7 44 -103 -3 -120 -48 -75 rlinecurve
          220 1 rmoveto
          54 -17 86 80 44 99 callgsubr
          -7 41 -102 -5 -120 -50 -75 rlinecurve
          endchar
        
                </CharString>
                <CharString name="quoteleft">
                    369 322 hstem
          197 126 vstem
          371 674 rmoveto
          -59 17 -88 -79 -57 -130 46 -113 rlinecurve
          142 8 -51 105 10 118 57 74 rlinecurve
          endchar
        
                </CharString>
                <CharString name="quoteright">
                    355 322 hstem
          240 125 vstem
          191 373 rmoveto
          60 -18 87 79 57 130 -46 113 rlinecurve
          -141 -8 50 -106 103 callgsubr
        
                </CharString>
                <CharString name="quotesinglbase">
                    -151 -21 hstem
          233 125 vstem
          184 -155 rmoveto
          59 -17 88 82 57 129 -46 110 rlinecurve
          -141 -7 50 -102 -9 -120 -58 -75 rlinecurve
          endchar
        
                </CharString>
                <CharString name="quotesingle">
                    369 305 hstem
          229 134 vstem
          308 369 rmoveto
          57 260 -4 45 rlineto
          -134 hlineto
          4 -305 rlineto
          endchar
        
                </CharString>
                <CharString name="r">
                    57 callsubr
          hstemhm
          187 110 hintmask 11010000
          439 hmoveto
          -26 callsubr
          hintmask 10110000
          -5 118 105 callgsubr
          -63 callsubr
          endchar
        
                </CharString>
                <CharString name="racute">
                    57 callsubr
          213 95 callgsubr
          180 617 -107 callgsubr
          259 -617 -38 callgsubr
        
                </CharString>
                <CharString name="rcaron">
                    57 callsubr
          206 95 callgsubr
          308 563 -99 callsubr
          138 -563 -38 callgsubr
        
                </CharString>
                <CharString name="rcommaaccent">
                    57 callsubr
          hstemhm
          187 110 -91 118 hintmask 11010000
          439 hmoveto
          -26 callsubr
          hintmask 10110000
          -5 118 105 callgsubr
          -63 callsubr
          hintmask 11001000
          121 -65 callsubr
        
                </CharString>
                <CharString name="registered">
                    187 54 158 150 77 54 hstem
          30 58 100 61 213 58 vstem
          520 440 rmoveto
          148 -103 94 -140 -2 vhcurveto
          -147 -2 -100 -102 -149 vvcurveto
          -148 96 -92 147 140 107 103 150 vhcurveto
          -58 -5 rmoveto
          -124 -79 -70 -109 -110 -76 69 122 121 77 73 110 111 76 -69 -122 vhcurveto
          -136 -117 rmoveto
          66 7 -61 88 rlineto
          26 19 19 25 25 vvcurveto
          40 -43 41 -145 -18 vhcurveto
          -224 61 78 27 vlineto
          endchar
        
                </CharString>
                <CharString name="registered.alt">
                    7 58 185 215 90 58 hstem
          36 63 86 68 198 97 callsubr
          92 -111 137 63 callsubr
          -135 -100 87 callsubr
          67 90 103 87 callgsubr
          -100 -69 88 155 vhcurveto
          214 -160 rmoveto
          72 8 -50 126 rlineto
          22 25 16 33 32 vvcurveto
          55 -40 57 -148 -25 vhcurveto
          -307 68 97 vlineto
          28 2 rlineto
          endchar
        
                </CharString>
                <CharString name="ring">
                    551 217 hstem
          149 268 vstem
          283 768 -64 callgsubr
          endchar
        
                </CharString>
                <CharString name="ruble">
                    0 188 -78 78 70 82 -78 79 195 91 -8 -20 hstemhm
          115 107 181 106 hintmask 10101011
          403 442 rmoveto
          hintmask 10011011
          -78 -52 -21 -129 -2 vhcurveto
          195 vlineto
          hintmask 10101011
          120 8 61 -31 -71 vvcurveto
          hintmask 01101011
          10 -332 rmoveto
          hintmask 10010111
          8 78 rlineto
          -199 74 hlineto
          184 12 103 56 125 vvcurveto
          141 -136 54 -258 -31 vhcurveto
          hintmask 01101011
          -279 -73 -82 73 -67 -73 -81 73 vlineto
          hintmask 10101011
          -110 107 vlineto
          hintmask 01101011
          110 vlineto
          endchar
        
                </CharString>
                <CharString name="rupee">
                    -8 89 -64 76 callsubr
          418 88 0 -20 132 -20 25 -20 hstemhm
          57 83.5 191.5 89 20 93 hintmask 0100110110000000
          227 -4 rmoveto
          89 12 -71 262 rlineto
          36 44 25 60 71 vvcurveto
          120 -74 78 -175 -25 vhcurveto
          hintmask 0010101110000000
          -618 86 vlineto
          -5 213 36 2 rlineto
          347 291 rmoveto
          -132 10 -57 -71 -72 vvcurveto
          hintmask 1000101110000000
          -106 109 -65 -71 vvcurveto
          hintmask 1001001111000000
          -33 -25 -23 -79 6 vhcurveto
          4 -89 rlineto
          146 -8 47 74 71 105 -113 75 64 vvcurveto
          hintmask 0011001110000000
          31 22 21 81 -7 vhcurveto
          endchar
        
                </CharString>
                <CharString name="rupeeindia">
                    4 -21 363 76 104 94 hstem
          74 413 vstem
          486 45 rmoveto
          -133 95 -68 48 -73 25 101 24 63 51 21 58 rrcurveto
          82 76 -78 hlineto
          -10 43 -27 36 -46 25 rrcurveto
          162 hlineto
          7 94 rlineto
          -401 hlineto
          -6 -91 137 -15 60 -39 17 -53 rlinecurve
          -212 -76 212 hlineto
          -17 -52 -57 -37 -129 -7 -17 -81 rcurveline
          125 -34 46 -34 157 -118 rrcurveto
          endchar
        
                </CharString>
                <CharString name="s">
                    56 callsubr
          70 callgsubr
          hintmask 10111000
          443 503 -58 callsubr
          hintmask 11011000
          -20 callgsubr
          endchar
        
                </CharString>
                <CharString name="sacute">
                    56 callsubr
          199 -20 70 callgsubr
          hintmask 10111100
          161 609 -107 callgsubr
          282 -106 -18 callgsubr
        
                </CharString>
                <CharString name="scaron">
                    56 callsubr
          205 -20 70 callgsubr
          hintmask 10111100
          289 555 -99 callsubr
          161 -52 -18 callgsubr
        
                </CharString>
                <CharString name="scedilla">
                    -5 92 -65 -21 406 96 -91 91 hstemhm
          90 115 81 100 -30 116 hintmask 10011010
          183 -231 rmoveto
          hintmask 01011100
          34 callsubr
          37 -31 42 -83 41 vhcurveto
          hintmask 01101010
          148 20 52 59 65 -20 callgsubr
          hintmask 10011010
          -4 96 rlineto
          -56 callgsubr
          hintmask 10011100
          43 -2 38 0 51 callgsubr
        
                </CharString>
                <CharString name="schwa">
                    -13 91 128 68 143 93 hstem
          59 109 215 110 vstem
          251 -13 rmoveto
          130 112 117 154 162 -84 93 -322 -3 hvcurveto
          -11 -93 221 -5 73 -33 12 -101 rlinecurve
          -320 -8 rlineto
          -173 -18 67 -110 140 hhcurveto
          20 91 rmoveto
          -70 -31 48 80 -2 hvcurveto
          61 2 101 3 53 2 rrcurveto
          -93 -5 -39 -42 -68 hhcurveto
          endchar
        
                </CharString>
                <CharString name="scommaaccent">
                    56 callsubr
          hstemhm
          90 115 12 118 21 116 hintmask 10110100
          443 503 -58 callsubr
          hintmask 11010100
          -20 callgsubr
          hintmask 10111100
          -249 -682 -100 callsubr
        
                </CharString>
                <CharString name="section">
                    -111 94 551 95 hstemhm
          53 99 -58 114 134 114 -58 99 hintmask 11100100
          152 270 rmoveto
          25 35 25 49 18 vhcurveto
          79 -31 83 -21 -38 vvcurveto
          -26 -35 -25 -48 -18 vhcurveto
          -80 31 -83 22 38 vvcurveto
          hintmask 11011000
          304 -217 rmoveto
          42 -31 30 -42 23 vhcurveto
          hintmask 11010100
          64 29 50 44 54 119 -289 18 62 vvcurveto
          30 49 42 202 -12 vhcurveto
          -5 95 rlineto
          -266 11 -94 -99 -77 vvcurveto
          -42 31 -29 43 -24 vhcurveto
          hintmask 11101000
          -65 -29 -50 -42 -54 -120 289 -20 -61 vvcurveto
          -29 -51 -43 -201 12 vhcurveto
          -4 -94 rlineto
          hintmask 11011000
          276 -12 94 99 77 vvcurveto
          endchar
        
                </CharString>
                <CharString name="semicolon">
                    -151 -21 493 28 callgsubr
          205 153 -126 127 hintmask 11100000
          357 321 rmoveto
          2 -40 callsubr
          -153 -66 callsubr
          hintmask 11010000
          -21 -475 rmoveto
          59 -18 87 79 60 127 -45 114 rlinecurve
          -145 -7 51 -105 103 callgsubr
        
                </CharString>
                <CharString name="servicemark">
                    284 62 -1 96 70 -20 20 109 -58 58 -58 61 hstemhm
          32 67 51 67 40 80 callsubr
          hintmask 0101001111000000
          372 345 82 callsubr
          hlineto
          hintmask 0110101111000000
          334 -71 vlineto
          39 callsubr
          hintmask 1010011111000000
          -291 -165 rmoveto
          -62 vlineto
          133 -3 52 53 51 75 -118 28 43 vvcurveto
          24 27 11 76 -4 vhcurveto
          -3 61 rlineto
          -122 6 -45 -59 -45 -74 118 -27 -42 vvcurveto
          -24 -34 -17 -84 5 vhcurveto
          endchar
        
                </CharString>
                <CharString name="seven">
                    14 -21 33 -21 516 99 hstemhm
          75 417 hintmask 10110000
          248 -7 rmoveto
          60 179 83 181 101 172 rrcurveto
          95 -409 vlineto
          -8 -99 rlineto
          305 hlineto
          3 -5 rlineto
          hintmask 01110000
          -103 -167 -84 -171 -60 -173 rrcurveto
          endchar
        
                </CharString>
                <CharString name="seven.den">
                    109 8 callgsubr
          -217 -62 callgsubr
        
                </CharString>
                <CharString name="seven.inf">
                    169 8 callgsubr
          -157 -62 callgsubr
        
                </CharString>
                <CharString name="seven.num">
                    744 8 callgsubr
          418 -62 callgsubr
        
                </CharString>
                <CharString name="seven.small">
                    14 -21 30 -21 317 26 callgsubr
          hintmask 10110000
          260 -7 rmoveto
          hintmask 01101000
          -79 callsubr
          endchar
        
                </CharString>
                <CharString name="seven.sup">
                    644 8 callgsubr
          318 -62 callgsubr
        
                </CharString>
                <CharString name="seveneighths">
                    3 callgsubr
          403 76 -17 callsubr
          hintmask 1011111001000000
          260 418 rmoveto
          -79 callsubr
          -109 -158 -49 callsubr
          207 -561 rmoveto
          -40 callgsubr
          hintmask 1011110110000000
          -63 callgsubr
          vhcurveto
          hintmask 1101110101000000
          5 callgsubr
          hintmask 1011111001000000
          -16 callgsubr
          hintmask 1011110110000000
          -89 callsubr
          hintmask 1011111001000000
          -91 callsubr
        
                </CharString>
                <CharString name="six">
                    -12 88 225 77 264 -20 hstem
          61 105 222 103 vstem
          274 -12 rmoveto
          116 101 81 132 167 -174 63 -141 -101 hvcurveto
          23 87 66 68 159 64 -46 93 rcurveline
          -219 -99 -98 -139 -173 vvcurveto
          -159 86 -84 127 vhcurveto
          10 88 rmoveto
          -67 -51 51 115 hvcurveto
          7 0 7 7 vvcurveto
          118 73 104 -35 -111 vvcurveto
          -74 -44 -40 -60 vhcurveto
          endchar
        
                </CharString>
                <CharString name="six.den">
                    -220 -2 callgsubr
          -220 -94 callgsubr
        
                </CharString>
                <CharString name="six.inf">
                    -160 -2 callgsubr
          -160 -94 callgsubr
        
                </CharString>
                <CharString name="six.num">
                    415 70 125 19 -19 58 hstemhm
          112 84 159 83 hintmask 10111000
          274 415 rmoveto
          89 75 57 83 hvcurveto
          hintmask 11011000
          116 -140 31 -98 -73 vhcurveto
          -64 callsubr
          hintmask 10111000
          -74 callgsubr
        
                </CharString>
                <CharString name="six.small">
                    -10 -2 callgsubr
          -10 -94 callgsubr
        
                </CharString>
                <CharString name="six.sup">
                    315 -2 callgsubr
          315 -94 callgsubr
        
                </CharString>
                <CharString name="slash">
                    -200 941 hstem
          2 553 vstem
          459 741 rmoveto
          -457 -898 96 -43 457 895 rlineto
          endchar
        
                </CharString>
                <CharString name="space">
                    endchar
        
                </CharString>
                <CharString name="sterling">
                    0 93 172 82 177 111 hstem
          59 426 vstem
          478 94 rmoveto
          -248 -2 20 173 rlineto
          165 hlineto
          8 82 rlineto
          -164 hlineto
          18 155 24 19 184 3 -6 111 rcurveline
          -247 -14 -59 -77 -23 -197 rrcurveto
          -78 hlineto
          -8 -82 rlineto
          78 hlineto
          -17 -174 rlineto
          -66 -91 419 hlineto
          endchar
        
                </CharString>
                <CharString name="t">
                    20 callgsubr
          -26 callgsubr
          endchar
        
                </CharString>
                <CharString name="tcaron">
                    20 callgsubr
          97 107 hintmask 11011100
          355 595 -47 callsubr
          108 -603 -4 callgsubr
          hintmask 11101100
          19 callsubr
          hintmask 11011100
          69 callsubr
          endchar
        
                </CharString>
                <CharString name="tcommaaccent">
                    20 callgsubr
          -16 118 -26 callgsubr
          hintmask 11010100
          -222 -65 callsubr
        
                </CharString>
                <CharString name="thorn">
                    84 callgsubr
          151 75 callgsubr
          200 110 hintmask 01110111
          254 102 callgsubr
          296 vlineto
          18 26 29 11 29 40 callsubr
          10 10 0 9 hhcurveto
          154 127 98 callgsubr
          -53 -43 -23 -30 -33 hvcurveto
          253 vlineto
          hintmask 10111011
          73 callgsubr
          -875 vlineto
          endchar
        
                </CharString>
                <CharString name="three">
                    -13 101 436 96 hstem
          372 107 vstem
          92 -13 rmoveto
          272 14 115 79 107 vvcurveto
          70 -60 62 -164 31 vhcurveto
          210 174 -8 96 rlineto
          -364 -96 260 hlineto
          -221 -183 rlineto
          -50 vlineto
          178 -21 62 -46 -45 vvcurveto
          -49 -68 -29 -220 -13 vhcurveto
          endchar
        
                </CharString>
                <CharString name="three.den">
                    -221 16 callgsubr
          -221 rmoveto
          -102 callsubr
        
                </CharString>
                <CharString name="three.inf">
                    -161 16 callgsubr
          -161 rmoveto
          -102 callsubr
        
                </CharString>
                <CharString name="three.num">
                    414 78 150 -20 124 25 callgsubr
          414 rmoveto
          -102 callsubr
        
                </CharString>
                <CharString name="three.small">
                    -11 16 callgsubr
          -11 rmoveto
          -102 callsubr
        
                </CharString>
                <CharString name="three.sup">
                    314 16 callgsubr
          314 rmoveto
          -102 callsubr
        
                </CharString>
                <CharString name="threeeighths">
                    3 callgsubr
          73 79 callgsubr
          6 callgsubr
          137 85 -84 89 hintmask 1011111110100000
          136 414 rmoveto
          -75 callsubr
          207 -561 rmoveto
          hintmask 1011111110010000
          -40 callgsubr
          hintmask 1011111101100000
          -63 callgsubr
          vhcurveto
          hintmask 1101111101100000
          5 callgsubr
          hintmask 1011111110100000
          -16 callgsubr
          hintmask 1011111101100000
          -89 callsubr
          hintmask 1011111110010000
          -91 callsubr
        
                </CharString>
                <CharString name="threefifths">
                    45 callgsubr
          73 79 callgsubr
          -41 callgsubr
          136 414 rmoveto
          -75 callsubr
          -83 callsubr
        
                </CharString>
                <CharString name="threequarters">
                    -135.5 71 333.5 72 73 79 callgsubr
          hstemhm
          35 callsubr
          -55 85 hintmask 11111010
          136 414 rmoveto
          hintmask 11111001
          -75 callsubr
          hintmask 11111110
          388 -477 -90 callsubr
        
                </CharString>
                <CharString name="tilde">
                    568 89 -3 90 -35 -20 hstemhm
          69 415 hintmask 10110000
          345 568 -56 callsubr
          hintmask 01010000
          -71 callsubr
          hintmask 10110000
          45 callsubr
          endchar
        
                </CharString>
                <CharString name="trademark">
                    511 -20 71 58 hstem
          93 64 100 80 callsubr
          vstem
          157 562 rmoveto
          67 58 -204 hlineto
          -3 -58 rlineto
          76 -275 64 hlineto
          215 58 82 callsubr
          334 -71 hlineto
          39 callsubr
          endchar
        
                </CharString>
                <CharString name="two">
                    0 96 429 103 hstem
          357 110 vstem
          483 hmoveto
          96 -281 vlineto
          167 131 98 91 126 vvcurveto
          103 -84 84 -286 -3 vhcurveto
          -9 -103 rlineto
          209 -3 60 -37 -70 vvcurveto
          -92 -101 -90 -187 -145 vhcurveto
          11 -88 rlineto
          endchar
        
                </CharString>
                <CharString name="two.den">
                    -210 -1 callsubr
          -210 rmoveto
          -82 callgsubr
        
                </CharString>
                <CharString name="two.inf">
                    -150 -1 callsubr
          -150 rmoveto
          -82 callgsubr
        
                </CharString>
                <CharString name="two.num">
                    425 -1 callsubr
          425 rmoveto
          -82 callgsubr
        
                </CharString>
                <CharString name="two.small">
                    0 -1 callsubr
          hmoveto
          -82 callgsubr
        
                </CharString>
                <CharString name="two.sup">
                    325 -1 callsubr
          325 rmoveto
          -82 callgsubr
        
                </CharString>
                <CharString name="twofifths">
                    45 callgsubr
          84 62 callsubr
          hstemhm
          -31 callsubr
          105 89 -72 82 hintmask 11111101
          94 callgsubr
          hintmask 11111110
          -95 callgsubr
          -66 -156 -49 callsubr
          hintmask 11111101
          -83 callsubr
        
                </CharString>
                <CharString name="twothirds">
                    -221 78 254 74 84 72 84 62 callsubr
          hstemhm
          330 89 -73 85 hintmask 11111100
          431 425 rmoveto
          -48 callsubr
          -66 -156 -49 callsubr
          76 -562 rmoveto
          hintmask 11111010
          -102 callsubr
        
                </CharString>
                <CharString name="u">
                    -5 callsubr
          hintmask 01000111
          378 -2 -76 callsubr
        
                </CharString>
                <CharString name="uacute">
                    -59 callsubr
          223 -20 14 callsubr
          160 611 -107 callgsubr
          hintmask 0100011110000000
          218 -613 -91 callgsubr
        
                </CharString>
                <CharString name="ubreve">
                    -59 callsubr
          86 89 14 callsubr
          279 567 -103 callgsubr
          hintmask 0100011110000000
          99 -569 -91 callgsubr
        
                </CharString>
                <CharString name="ucircumflex">
                    -59 callsubr
          135 -20 33 -20 -9 callgsubr
          hintmask 0010010111000000
          396 564 -73 callsubr
          hintmask 0010011011000000
          13 callgsubr
          rlineto
          hintmask 0100010111000000
          -30 callgsubr
          109 -668 rmoveto
          hintmask 0010100111000000
          103 -70 callgsubr
          hintmask 1000010111000000
          -85 callgsubr
          hintmask 1001000111000000
          -80 callsubr
        
                </CharString>
                <CharString name="udieresis">
                    -59 callsubr
          95 140 55 callsubr
          -70 -81 callgsubr
          -85.5 111 hintmask 0010011011000000
          446 576 -103 callsubr
          hintmask 0100011100100000
          267 -578 rmoveto
          hintmask 0010101100100000
          103 -70 callgsubr
          hintmask 1000011100100000
          -85 callgsubr
          hintmask 1001001100100000
          -80 callsubr
        
                </CharString>
                <CharString name="ugrave">
                    -5 callsubr
          hintmask 00100111
          390 607 -95 callsubr
          hintmask 01000111
          19 -561 -76 callsubr
        
                </CharString>
                <CharString name="uhungarumlaut">
                    -5 callsubr
          hintmask 00100111
          117 600 -86 callsubr
          hintmask 01000111
          51 -600 -76 callsubr
        
                </CharString>
                <CharString name="umacron">
                    -59 callsubr
          118 95 14 callsubr
          451 694 -24 callsubr
          hintmask 0100011110000000
          -73 -601 -91 callgsubr
        
                </CharString>
                <CharString name="underscore">
                    -140 90 hstem
          32 486 vstem
          518 -50 rmoveto
          -486 -90 486 hlineto
          endchar
        
                </CharString>
                <CharString name="underscore.alt">
                    -140 90 hstem
          -10 570 vstem
          560 -50 rmoveto
          -570 -90 570 hlineto
          endchar
        
                </CharString>
                <CharString name="uni00A0">
                    endchar
        
                </CharString>
                <CharString name="uogonek">
                    -221 88 120 95 -74 -21 37 -27 callgsubr
          55 callsubr
          73 105 2 111 hintmask 1001001110000000
          459 -221 rmoveto
          10 81 callsubr
          93 41 vhcurveto
          hintmask 1100010101000000
          -66 callgsubr
          -149 1 -122 2 -90 vhcurveto
          -34 -31 -32 -21 -39 hhcurveto
          -50 -31 28 88 hvcurveto
          hintmask 1001001101000000
          303 vlineto
          hintmask 1100100101000000
          -39 callgsubr
          54 -50 87 63 55 41 47 40 vhcurveto
          hintmask 1010001101000000
          7 -66 rlineto
          hintmask 1001001110000000
          -86 -47 -36 -41 -40 vvcurveto
          -53 56 58 callsubr
          endchar
        
                </CharString>
                <CharString name="uring">
                    -59 callsubr
          73 217 14 callsubr
          277 771 -64 callgsubr
          hintmask 0100011110000000
          101 -773 -91 callgsubr
        
                </CharString>
                <CharString name="v">
                    -4 112 390 51 callsubr
          hstemhm
          34 484 hintmask 10110000
          281 108 rmoveto
          -7 hlineto
          -47 131 -42 134 -39 129 -112 -8 rcurveline
          52 -164 59 -169 62 -165 rrcurveto
          135 hlineto
          hintmask 11010000
          63 165 62 171 51 166 rrcurveto
          -112 hlineto
          hintmask 10110000
          -38 -128 -41 -132 -46 -130 rrcurveto
          endchar
        
                </CharString>
                <CharString name="w">
                    52 callgsubr
          353 hmoveto
          -48 callgsubr
        
                </CharString>
                <CharString name="wacute">
                    12 callgsubr
          223 86 callsubr
          157 -53 callsubr
          196 -608 -49 callgsubr
        
                </CharString>
                <CharString name="wcircumflex">
                    12 callgsubr
          148 86 callsubr
          394 561 -87 callsubr
          86 -663 -49 callgsubr
        
                </CharString>
                <CharString name="wdieresis">
                    12 callgsubr
          95 140 90 callsubr
          -62 -81 callgsubr
          -46.5 104 hintmask 01110110
          443 573 -103 callsubr
          245 -573 rmoveto
          hintmask 01110101
          -22 callgsubr
          hintmask 10111001
          -96 callsubr
        
                </CharString>
                <CharString name="wgrave">
                    52 callgsubr
          388 604 -95 callsubr
          -4 -556 rmoveto
          -48 callgsubr
        
                </CharString>
                <CharString name="x">
                    19 -21 23 -21 24 -21 495 -20 23 -20 hstemhm
          32 486 hintmask 10001100
          392 -2 rmoveto
          hintmask 00110100
          126 5 -170 246 170 249 rlineto
          -118 hlineto
          -119 -185 rlineto
          hintmask 01001100
          -125 188 -124 -6 171 -246 -171 -249 rlineto
          118 hlineto
          120 184 rlineto
          endchar
        
                </CharString>
                <CharString name="y">
                    66 callgsubr
          71 -177 -43 callsubr
        
                </CharString>
                <CharString name="yacute">
                    24 callsubr
          223 -20 hstemhm
          33 482 hintmask 10111000
          163 612 -107 callgsubr
          -92 -789 12 callsubr
          rrcurveto
          hintmask 11011000
          -54 callgsubr
          hintmask 10111000
          -75 callgsubr
        
                </CharString>
                <CharString name="ycircumflex">
                    24 callsubr
          135 90 callgsubr
          33 482 hintmask 10101100
          400 565 -73 callsubr
          hintmask 10110100
          13 callgsubr
          rlineto
          hintmask 11001100
          -30 callgsubr
          -202 -844 12 callsubr
          -54 callgsubr
          hintmask 10101100
          -75 callgsubr
        
                </CharString>
                <CharString name="ydieresis">
                    24 callsubr
          95 28 callgsubr
          115 -81 callgsubr
          hintmask 10111100
          449 577 -103 callsubr
          -43 -754 12 callsubr
          rrcurveto
          hintmask 11011100
          -54 callgsubr
          hintmask 10111100
          -75 callgsubr
        
                </CharString>
                <CharString name="yen">
                    0 202 -80 80 75 79 264 -20 22 -20 hstemhm
          219.5 108 hintmask 01101100
          489 122 rmoveto
          1 80 rlineto
          -163 29 hlineto
          22 46 rlineto
          141 79 -103 hlineto
          hintmask 01110100
          129 264 rlineto
          -112 hlineto
          -126 -291 rlineto
          hintmask 01101100
          -131 293 -118 -4 130 -262 rlineto
          -102 -79 141 hlineto
          22 -45 rlineto
          -30 -163 vlineto
          -1 -80 rlineto
          164 hlineto
          hintmask 10101100
          -1 -122 rlineto
          109 hlineto
          hintmask 01101100
          -1 122 rlineto
          endchar
        
                </CharString>
                <CharString name="ygrave">
                    66 callgsubr
          394 608 -95 callsubr
          -292 -737 -43 callsubr
        
                </CharString>
                <CharString name="z">
                    8 callsubr
          103 callsubr
          482 hmoveto
          -50 callgsubr
        
                </CharString>
                <CharString name="zacute">
                    8 callsubr
          203 -20 103 callsubr
          159 -53 callsubr
          323 -608 rmoveto
          -50 callgsubr
        
                </CharString>
                <CharString name="zcaron">
                    8 callsubr
          209 -20 103 callsubr
          287 554 -99 callsubr
          202 -554 rmoveto
          -50 callgsubr
        
                </CharString>
                <CharString name="zdotaccent">
                    8 callsubr
          75 140 hstem
          223 17 callgsubr
          vstem
          336 573 -61 callsubr
          261 -573 rmoveto
          -50 callgsubr
        
                </CharString>
                <CharString name="zero">
                    -12 callsubr
          -113 333 rmoveto
          142 39 81 81 59 36 -50 -84 16 vhcurveto
          -230 -119 rlineto
          -1 9 0 11 10 vvcurveto
          121 -243 rmoveto
          -58 -37 48 82 -16 hvcurveto
          230 119 rlineto
          -9 0 -8 -9 vvcurveto
          -142 -38 -81 -81 vhcurveto
          endchar
        
                </CharString>
                <CharString name="zero.alt">
                    -12 callsubr
          7 556 rmoveto
          81 39 -95 -148 -142 -38 -81 -81 -81 -40 95 148 142 39 81 81 hvcurveto
          endchar
        
                </CharString>
                <CharString name="zero.den">
                    -220 -13 callsubr
          -220 -90 callgsubr
        
                </CharString>
                <CharString name="zero.inf">
                    -160 -13 callsubr
          -160 -90 callgsubr
        
                </CharString>
                <CharString name="zero.num">
                    415 -13 callsubr
          415 -90 callgsubr
        
                </CharString>
                <CharString name="zero.small">
                    -10 -13 callsubr
          -10 -90 callgsubr
        
                </CharString>
                <CharString name="zero.sup">
                    315 -13 callsubr
          315 -90 callgsubr
        
                </CharString>
                <CharString name="ampersand_ampersand.liga">
                    107 270.7619 245 rmoveto
21.46031 -26 57.77777 -70 rlineto
-30.66667 -48 -33.66666 -24 -36.66667 0 -22.66667 0 -17.5 7.5 -12.33333 15 -12.33333 15 -6.16667 19.16667 0 23.33333 0 43.33333 22.66667 39.33334 45.33333 35.33333 rrcurveto
494.49207 -43 rmoveto
20.63492 -25 47.87302 -58 rlineto
-30.66667 -48 -33.66666 -24 -36.66667 0 -22.66667 0 -17.5 7.5 -12.33333 15 -12.33333 15 -6.16667 19.16667 0 23.33333 0 43.33333 22.66667 39.33334 45.33333 35.33333 rrcurveto
191 256 rmoveto
-7 102 rlineto
-102.81816 1.3353 -73.66667 -18 -44.51517 -37.3353 -40 -33.54839 -20 -40.66667 0 -47.78494 0 -35.33333 18.66667 -43 37.33333 -50.66667 -88.66667 -55.33333 -44.33333 -65 0 -74.66667 0 -12 1 -11.66667 2 -11.33333 -18 22 -23.66667 29.33333 -29.33333 36.66667 rrcurveto
36 66.66667 27.66667 69.66666 19.33333 72.66667 rrcurveto
-94 11 rlineto
-9.33333 -47.33333 -15 -51.33334 -20.66667 -55.33333 -6.66667 8 -18.16666 21.16667 -29.66667 34.33333 -29.66667 34.33333 -22.66666 28.33334 -15.66667 22.33333 -15.66667 22.33333 -7.83333 19.5 0 16.66667 0 26.66667 12.66667 19.5 25.33333 12.33333 25.33333 12.33333 46 4.5 66.66667 -3.33333 rrcurveto
-7 102 rlineto
-102.81816 1.3353 -73.66667 -18 -44.51517 -37.3353 -40 -33.54839 -20 -40.66667 0 -47.78494 0 -35.33333 18.66667 -43 37.33333 -50.66667 -88.66667 -55.33333 -44.33333 -65 0 -74.66667 0 -43.33333 13.16667 -35.16667 26.33333 -27 26.33333 -27 37.83334 -13.5 49.33333 0 rrcurveto
69.33333 0 58.33334 33.33333 47.33333 66.66667 46.66667 -64.66667 94.66666 -33.33333 142.66667 -2 69.33333 0 58.33334 33.33333 47.33333 66.66667 19.33333 -24 26 -33.66667 32.66667 -43.33333 rrcurveto
91 69 rlineto
-12.66667 16 -35.33333 43.66667 -58 71.33333 36 66.66667 27.66667 69.66666 19.33333 72.66667 rrcurveto
-94 11 rlineto
-9.33333 -47.33333 -15 -51.33334 -20.66667 -55.33333 -6.66667 8 -18.16666 21.16667 -29.66667 34.33333 -29.66667 34.33333 -22.66666 28.33334 -15.66667 22.33333 -15.66667 22.33333 -7.83333 19.5 0 16.66667 0 26.66667 12.66667 19.5 25.33333 12.33333 25.33333 12.33333 46 4.5 66.66667 -3.33333 rrcurveto
endchar
    
                </CharString>
                <CharString name="bar_bar.liga">
                    107 672 709 rmoveto
-892 105 901 vlineto
-454 -9 rmoveto
-892 105 901 vlineto
410 -1418 rmoveto
0 vmoveto
endchar
    
                </CharString>
                <CharString name="equal_equal.liga">
                    107 1028 458 rmoveto
-956 -2 0 -94 956 2 rlineto
-126 vmoveto
-956 -2 0 -94 956 2 rlineto
endchar
    
                </CharString>
                <CharString name="equal_equal_equal.liga">
                    657 72 526 rmoveto
0 -94 1506 2 0 94 rlineto
-331 vmoveto
-1506 -2 0 -94 1506 2 rlineto
-1506 159 rmoveto
1506 2 0 94 -1506 -2 rlineto
endchar
    
                </CharString>
                <CharString name="equal_equal_greater.liga">
                    657 1245 -20 rmoveto
333 273 0 93 -328 271 -62 -80 99 -79 -1215 -2 0 -94 1332 2 74 -59 0 -11 -70 -56 -1336 -2 0 -94 1219 2 -106 -86 rlineto
endchar
    
                </CharString>
                <CharString name="equal_greater.liga">
                    107 695 -20 rmoveto
333 273 0 93 -328 271 -62 -80 99 -79 -665 -2 0 -94 782 2 74 -59 0 -11 -70 -56 -786 -2 0 -94 669 2 -106 -86 rlineto
endchar
    
                </CharString>
                <CharString name="exclam_equal.liga">
                    107 1028 238 rmoveto
-457 -1 65 126 392 1 0 94 -344 -1 121 238 -96 46 -145 -284 -492 -1 0 -94 445 1 -65 -126 -380 -1 0 -94 333 1 rlineto
-153 -300 96 -43 175 343 505 1 rlineto
endchar
    
                </CharString>
                <CharString name="exclam_equal_equal.liga">
                    657 969 741 rmoveto
-109 -214 -788 -1 0 -94 740 1 -38 -76 -702 -1 0 -94 654 1 -34 -67 -620 -1 0 -94 572 1 -132 -259 96 -43 154 302 rlineto
816 1 0 94 -768 -1 34 67 734 1 0 94 -686 -1 39 76 647 1 0 94 -599 -1 86 168 rlineto
endchar
    
                </CharString>
                <CharString name="greater_equal.liga">
                    107 308 -101 rmoveto
534 262 -2 96 -583 -292 rlineto
60 131 rmoveto
523 257 0 126 -518 254 -62 -80 480 -232 0 -11 -483 -236 rlineto
endchar
    
                </CharString>
                <CharString name="hyphen_greater.liga">
                    107 695 -24 rmoveto
333 273 0 93 -328 271 -62 -80 235 -188 -801 0 0 -95 806 0 -243 -196 rlineto
endchar
    
                </CharString>
                <CharString name="hyphen_hyphen.liga">
                    107 910 345 rmoveto
-320 -95 312 hlineto
-392 95 rmoveto
-320 -95 312 hlineto
endchar
    
                </CharString>
                <CharString name="hyphen_hyphen_greater.liga">
                    657 1245 -24 rmoveto
333 273 0 93 -328 271 -62 -80 235 -188 -1351 0 0 -95 1356 0 -243 -196 rlineto
endchar
    
                </CharString>
                <CharString name="less_equal.liga">
                    107 791 -101 rmoveto
-534 262 2 96 583 -292 rlineto
-60 131 rmoveto
-523 257 0 126 518 254 62 -80 -480 -232 0 -11 483 -236 rlineto
endchar
    
                </CharString>
                <CharString name="less_equal_equal.liga">
                    657 405 -20 rmoveto
-333 273 0 93 328 271 62 -80 -99 -79 1215 -2 0 -94 -1332 2 -74 -59 0 -11 70 -56 1336 -2 0 -94 -1219 2 106 -86 rlineto
endchar
    
                </CharString>
                <CharString name="less_exclam_hyphen_x2.liga">
                    1207 -98 852 rmoveto
1025 -507 rmoveto
-9 -95 1194 0 8 95 rlineto
-1502 hmoveto
-383.28206 0 236.28206 190 -60 79 -331 -272 0 -93 329 -273 63 80 -242.08546 194 380.08546 0 rlineto
120 -5 rmoveto
74 hlineto
0.66667 15.33333 6.66666 72.33334 12.66667 129.33333 12.66667 129.33333 6.66666 71.66667 0.66667 14 rrcurveto
-142 hlineto
0 -14 4.66667 -71.5 9.33333 -129 9.33333 -129 4.66667 -72.5 0 -16 rrcurveto
105 -114 rmoveto
-144 0 -3 -131 143 0 rlineto
endchar
    
                </CharString>
                <CharString name="less_hyphen.liga">
                    107 405 -24 rmoveto
-333 273 0 93 328 271 62 -80 -235 -188 801 0 0 -95 -806 0 243 -196 rlineto
endchar
    
                </CharString>
                <CharString name="less_hyphen_hyphen.liga">
                    657 405 -24 rmoveto
-333 273 0 93 328 271 62 -80 -235 -188 1351 0 0 -95 -1356 0 243 -196 rlineto
endchar
    
                </CharString>
                <CharString name="plus_plus.liga">
                    107 983 251 rmoveto
93 -168 178 -99 -178 -163 vlineto
-6 0 -162 0 0 178 -99 0 0 -178 -169 0 0 -93 169 0 0 -178 99 0 0 178 162 0 6 0 163 0 0 -178 rlineto
99 178 hlineto
endchar
    
                </CharString>
            <CharString index="0">
                rmoveto
        28 -49 73 27 120 62 66 53 rlinecurve
        -82 84 -53 -59 -94 -80 -58 -38 rlinecurve
        return
      
            </CharString>
            <CharString index="1">
                rmoveto
        55 -51 46 -156 16 vhcurveto
        6 73 rlineto
        182 hlineto
        8 75 rlineto
        -262 hlineto
        -15 -208 rlineto
        149 -10 57 -20 -29 vvcurveto
        -33 -57 -17 -159 -10 vhcurveto
        5 -79 80 callgsubr
        11 91 56 74 vvcurveto
        return
      
            </CharString>
            <CharString index="2">
                -93 callsubr
        hintmask 01011111
        47 callgsubr
        hintmask 00111111
        -101 callsubr
        hintmask 10011111
        -46 callgsubr
        hintmask 01011111
        -30 callsubr
      
            </CharString>
</ttFont>
